<?xml version="1.0" encoding="UTF-8" standalone="no"?>
<!DOCTYPE svg PUBLIC "-//W3C//DTD SVG 1.1//EN"
 "http://www.w3.org/Graphics/SVG/1.1/DTD/svg11.dtd">
<!-- Generated by graphviz version 2.40.1 (20161225.0304)
 -->
<!-- Title: dependencies Pages: 1 -->
<svg width="504pt" height="211pt"
 viewBox="0.00 0.00 504.00 211.00" xmlns="http://www.w3.org/2000/svg" xmlns:xlink="http://www.w3.org/1999/xlink">
<g id="graph0" class="graph" transform="scale(1 1) rotate(0) translate(4 207)">
<title>dependencies</title>
<polygon fill="#ffffff" stroke="transparent" points="-4,4 -4,-207 500,-207 500,4 -4,4"/>
<text text-anchor="start" x="227.0091" y="-42.4" font-family="sans-serif" font-weight="bold" font-size="14.00" fill="#000000">Legend</text>
<polygon fill="#ffffb3" stroke="transparent" points="14,-10 14,-30 34,-30 34,-10 14,-10"/>
<text text-anchor="start" x="37.629" y="-15.4" font-family="sans-serif" font-size="14.00" fill="#000000"> &#160;Declarations</text>
<polygon fill="#8dd3c7" stroke="transparent" points="127,-10 127,-30 147,-30 147,-10 127,-10"/>
<text text-anchor="start" x="150.7251" y="-15.4" font-family="sans-serif" font-size="14.00" fill="#000000"> &#160;Module</text>
<polygon fill="#80b1d3" stroke="transparent" points="213,-10 213,-30 233,-30 233,-10 213,-10"/>
<text text-anchor="start" x="236.7812" y="-15.4" font-family="sans-serif" font-size="14.00" fill="#000000"> &#160;Bootstrap</text>
<polygon fill="#fdb462" stroke="transparent" points="310,-10 310,-30 330,-30 330,-10 310,-10"/>
<text text-anchor="start" x="333.6732" y="-15.4" font-family="sans-serif" font-size="14.00" fill="#000000"> &#160;Providers</text>
<polygon fill="#fb8072" stroke="transparent" points="406,-10 406,-30 426,-30 426,-10 406,-10"/>
<text text-anchor="start" x="429.7258" y="-15.4" font-family="sans-serif" font-size="14.00" fill="#000000"> &#160;Exports</text>
<g id="clust1" class="cluster">
<title>cluster_CommonBackendModule</title>
<polygon fill="none" stroke="#000000" stroke-dasharray="1,5" points="115,-70 115,-195 381,-195 381,-70 115,-70"/>
</g>
<g id="clust3" class="cluster">
<title>cluster_CommonBackendModule_imports</title>
<polygon fill="none" stroke="#000000" points="123,-78 123,-130 373,-130 373,-78 123,-78"/>
</g>
<!-- CommonModule -->
<g id="node1" class="node">
<title>CommonModule</title>
<polygon fill="#8dd3c7" stroke="#000000" points="364.6681,-122 361.6681,-126 340.6681,-126 337.6681,-122 253.3319,-122 253.3319,-86 364.6681,-86 364.6681,-122"/>
<text text-anchor="middle" x="309" y="-99.8" font-family="Times,serif" font-size="14.00" fill="#000000">CommonModule</text>
</g>
<!-- CommonBackendModule -->
<g id="node3" class="node">
<title>CommonBackendModule</title>
<polygon fill="#8dd3c7" stroke="#000000" points="328.1484,-187 325.1484,-191 304.1484,-191 301.1484,-187 167.8516,-187 167.8516,-151 328.1484,-151 328.1484,-187"/>
<text text-anchor="middle" x="248" y="-164.8" font-family="Times,serif" font-size="14.00" fill="#000000">CommonBackendModule</text>
</g>
<!-- CommonModule&#45;&gt;CommonBackendModule -->
<g id="edge1" class="edge">
<title>CommonModule&#45;&gt;CommonBackendModule</title>
<path fill="none" stroke="#000000" d="M290.7451,-122.1061C290.7451,-122.1061 290.7451,-140.991 290.7451,-140.991"/>
<polygon fill="#000000" stroke="#000000" points="287.2452,-140.9909 290.7451,-150.991 294.2452,-140.991 287.2452,-140.9909"/>
</g>
<!-- NbAuthModule -->
<g id="node2" class="node">
<title>NbAuthModule</title>
<polygon fill="#8dd3c7" stroke="#000000" points="235.1542,-122 232.1542,-126 211.1542,-126 208.1542,-122 130.8458,-122 130.8458,-86 235.1542,-86 235.1542,-122"/>
<text text-anchor="middle" x="183" y="-99.8" font-family="Times,serif" font-size="14.00" fill="#000000">NbAuthModule</text>
</g>
<!-- NbAuthModule&#45;&gt;CommonBackendModule -->
<g id="edge2" class="edge">
<title>NbAuthModule&#45;&gt;CommonBackendModule</title>
<path fill="none" stroke="#000000" d="M201.5014,-122.1061C201.5014,-122.1061 201.5014,-140.991 201.5014,-140.991"/>
<polygon fill="#000000" stroke="#000000" points="198.0015,-140.9909 201.5014,-150.991 205.0015,-140.991 198.0015,-140.9909"/>
</g>
</g>
</svg>
