<svg width="1920" height="2107" viewBox="0 0 1920 2107" fill="none" xmlns="http://www.w3.org/2000/svg">
<rect width="1920" height="1407" fill="#1EC18D"/>
<path d="M919.5 1164.68C517.5 958.679 113.5 936.179 -12 995.679V1681.18H2092V1073.68C1835.17 1172.68 1241.1 1329.48 919.5 1164.68Z" fill="#FD825C"/>
<path d="M-12 1027.68C113.5 968.179 517.5 990.679 919.5 1196.68C1241.1 1361.48 1835.17 1204.68 2092 1105.68V1880.5C2092 1880.5 2025.02 2106.5 1909.5 2106.5C1486 2106.5 1501.5 1955 1214 1955C1067.56 1955 750 2033 500 2033C297.246 2033 74.6667 1931.17 -12 1880.5V1027.68Z" fill="#212947"/>
</svg>
