<?xml version="1.0" encoding="UTF-8" standalone="no"?>
<!DOCTYPE svg PUBLIC "-//W3C//DTD SVG 1.1//EN"
 "http://www.w3.org/Graphics/SVG/1.1/DTD/svg11.dtd">
<!-- Generated by graphviz version 2.40.1 (20161225.0304)
 -->
<!-- Title: dependencies Pages: 1 -->
<svg width="614pt" height="211pt"
 viewBox="0.00 0.00 614.00 211.00" xmlns="http://www.w3.org/2000/svg" xmlns:xlink="http://www.w3.org/1999/xlink">
<g id="graph0" class="graph" transform="scale(1 1) rotate(0) translate(4 207)">
<title>dependencies</title>
<polygon fill="#ffffff" stroke="transparent" points="-4,4 -4,-207 610,-207 610,4 -4,4"/>
<text text-anchor="start" x="282.0091" y="-42.4" font-family="sans-serif" font-weight="bold" font-size="14.00" fill="#000000">Legend</text>
<polygon fill="#ffffb3" stroke="transparent" points="69,-10 69,-30 89,-30 89,-10 69,-10"/>
<text text-anchor="start" x="92.629" y="-15.4" font-family="sans-serif" font-size="14.00" fill="#000000"> &#160;Declarations</text>
<polygon fill="#8dd3c7" stroke="transparent" points="182,-10 182,-30 202,-30 202,-10 182,-10"/>
<text text-anchor="start" x="205.7251" y="-15.4" font-family="sans-serif" font-size="14.00" fill="#000000"> &#160;Module</text>
<polygon fill="#80b1d3" stroke="transparent" points="268,-10 268,-30 288,-30 288,-10 268,-10"/>
<text text-anchor="start" x="291.7812" y="-15.4" font-family="sans-serif" font-size="14.00" fill="#000000"> &#160;Bootstrap</text>
<polygon fill="#fdb462" stroke="transparent" points="365,-10 365,-30 385,-30 385,-10 365,-10"/>
<text text-anchor="start" x="388.6732" y="-15.4" font-family="sans-serif" font-size="14.00" fill="#000000"> &#160;Providers</text>
<polygon fill="#fb8072" stroke="transparent" points="461,-10 461,-30 481,-30 481,-10 461,-10"/>
<text text-anchor="start" x="484.7258" y="-15.4" font-family="sans-serif" font-size="14.00" fill="#000000"> &#160;Exports</text>
<g id="clust1" class="cluster">
<title>cluster_PagesModule</title>
<polygon fill="none" stroke="#000000" stroke-dasharray="1,5" points="8,-70 8,-195 598,-195 598,-70 8,-70"/>
</g>
<g id="clust3" class="cluster">
<title>cluster_PagesModule_imports</title>
<polygon fill="none" stroke="#000000" points="152,-78 152,-130 590,-130 590,-78 152,-78"/>
</g>
<g id="clust6" class="cluster">
<title>cluster_PagesModule_providers</title>
<polygon fill="none" stroke="#000000" points="16,-78 16,-130 144,-130 144,-78 16,-78"/>
</g>
<!-- ThemeModule -->
<g id="node1" class="node">
<title>ThemeModule</title>
<polygon fill="#8dd3c7" stroke="#000000" points="582.4231,-122 579.4231,-126 558.4231,-126 555.4231,-122 483.5769,-122 483.5769,-86 582.4231,-86 582.4231,-122"/>
<text text-anchor="middle" x="533" y="-99.8" font-family="Times,serif" font-size="14.00" fill="#000000">ThemeModule</text>
</g>
<!-- PagesModule -->
<g id="node4" class="node">
<title>PagesModule</title>
<polygon fill="#8dd3c7" stroke="#000000" points="357.2064,-187 354.2064,-191 333.2064,-191 330.2064,-187 264.7936,-187 264.7936,-151 357.2064,-151 357.2064,-187"/>
<text text-anchor="middle" x="311" y="-164.8" font-family="Times,serif" font-size="14.00" fill="#000000">PagesModule</text>
</g>
<!-- ThemeModule&#45;&gt;PagesModule -->
<g id="edge1" class="edge">
<title>ThemeModule&#45;&gt;PagesModule</title>
<path fill="none" stroke="#000000" d="M533,-122.1061C533,-141.3391 533,-169 533,-169 533,-169 367.2682,-169 367.2682,-169"/>
<polygon fill="#000000" stroke="#000000" points="367.2683,-165.5001 357.2682,-169 367.2682,-172.5001 367.2683,-165.5001"/>
</g>
<!-- UserDashboardModule -->
<g id="node2" class="node">
<title>UserDashboardModule</title>
<polygon fill="#8dd3c7" stroke="#000000" points="465.1177,-122 462.1177,-126 441.1177,-126 438.1177,-122 318.8823,-122 318.8823,-86 465.1177,-86 465.1177,-122"/>
<text text-anchor="middle" x="392" y="-99.8" font-family="Times,serif" font-size="14.00" fill="#000000">UserDashboardModule</text>
</g>
<!-- UserDashboardModule&#45;&gt;PagesModule -->
<g id="edge2" class="edge">
<title>UserDashboardModule&#45;&gt;PagesModule</title>
<path fill="none" stroke="#000000" d="M337.8973,-122.1061C337.8973,-122.1061 337.8973,-140.991 337.8973,-140.991"/>
<polygon fill="#000000" stroke="#000000" points="334.3973,-140.9909 337.8973,-150.991 341.3973,-140.991 334.3973,-140.9909"/>
</g>
<!-- MiscellaneousModule -->
<g id="node3" class="node">
<title>MiscellaneousModule</title>
<polygon fill="#8dd3c7" stroke="#000000" points="300.4144,-122 297.4144,-126 276.4144,-126 273.4144,-122 159.5856,-122 159.5856,-86 300.4144,-86 300.4144,-122"/>
<text text-anchor="middle" x="230" y="-99.8" font-family="Times,serif" font-size="14.00" fill="#000000">MiscellaneousModule</text>
</g>
<!-- MiscellaneousModule&#45;&gt;PagesModule -->
<g id="edge3" class="edge">
<title>MiscellaneousModule&#45;&gt;PagesModule</title>
<path fill="none" stroke="#000000" d="M282.5519,-122.1061C282.5519,-122.1061 282.5519,-140.991 282.5519,-140.991"/>
<polygon fill="#000000" stroke="#000000" points="279.052,-140.9909 282.5519,-150.991 286.052,-140.991 279.052,-140.9909"/>
</g>
<!-- PagesMenu -->
<g id="node5" class="node">
<title>PagesMenu</title>
<ellipse fill="#fdb462" stroke="#000000" cx="80" cy="-104" rx="56.1802" ry="18"/>
<text text-anchor="middle" x="80" y="-99.8" font-family="Times,serif" font-size="14.00" fill="#000000">PagesMenu</text>
</g>
<!-- PagesMenu&#45;&gt;PagesModule -->
<g id="edge4" class="edge">
<title>PagesMenu&#45;&gt;PagesModule</title>
<path fill="none" stroke="#000000" d="M80,-122.1061C80,-141.3391 80,-169 80,-169 80,-169 254.8089,-169 254.8089,-169"/>
<polygon fill="#000000" stroke="#000000" points="254.8089,-172.5001 264.8089,-169 254.8089,-165.5001 254.8089,-172.5001"/>
</g>
</g>
</svg>
