<?xml version="1.0" encoding="UTF-8" standalone="no"?>
<!DOCTYPE svg PUBLIC "-//W3C//DTD SVG 1.1//EN"
 "http://www.w3.org/Graphics/SVG/1.1/DTD/svg11.dtd">
<!-- Generated by graphviz version 2.40.1 (20161225.0304)
 -->
<!-- Title: dependencies Pages: 1 -->
<svg width="1255pt" height="211pt"
 viewBox="0.00 0.00 1255.00 211.00" xmlns="http://www.w3.org/2000/svg" xmlns:xlink="http://www.w3.org/1999/xlink">
<g id="graph0" class="graph" transform="scale(1 1) rotate(0) translate(4 207)">
<title>dependencies</title>
<polygon fill="#ffffff" stroke="transparent" points="-4,4 -4,-207 1251,-207 1251,4 -4,4"/>
<text text-anchor="start" x="602.5091" y="-42.4" font-family="sans-serif" font-weight="bold" font-size="14.00" fill="#000000">Legend</text>
<polygon fill="#ffffb3" stroke="transparent" points="389.5,-10 389.5,-30 409.5,-30 409.5,-10 389.5,-10"/>
<text text-anchor="start" x="413.129" y="-15.4" font-family="sans-serif" font-size="14.00" fill="#000000"> &#160;Declarations</text>
<polygon fill="#8dd3c7" stroke="transparent" points="502.5,-10 502.5,-30 522.5,-30 522.5,-10 502.5,-10"/>
<text text-anchor="start" x="526.2251" y="-15.4" font-family="sans-serif" font-size="14.00" fill="#000000"> &#160;Module</text>
<polygon fill="#80b1d3" stroke="transparent" points="588.5,-10 588.5,-30 608.5,-30 608.5,-10 588.5,-10"/>
<text text-anchor="start" x="612.2812" y="-15.4" font-family="sans-serif" font-size="14.00" fill="#000000"> &#160;Bootstrap</text>
<polygon fill="#fdb462" stroke="transparent" points="685.5,-10 685.5,-30 705.5,-30 705.5,-10 685.5,-10"/>
<text text-anchor="start" x="709.1732" y="-15.4" font-family="sans-serif" font-size="14.00" fill="#000000"> &#160;Providers</text>
<polygon fill="#fb8072" stroke="transparent" points="781.5,-10 781.5,-30 801.5,-30 801.5,-10 781.5,-10"/>
<text text-anchor="start" x="805.2258" y="-15.4" font-family="sans-serif" font-size="14.00" fill="#000000"> &#160;Exports</text>
<g id="clust1" class="cluster">
<title>cluster_PagesModule</title>
<polygon fill="none" stroke="#000000" stroke-dasharray="1,5" points="8,-70 8,-195 1239,-195 1239,-70 8,-70"/>
</g>
<g id="clust2" class="cluster">
<title>cluster_PagesModule_declarations</title>
<polygon fill="none" stroke="#000000" points="1043,-78 1043,-130 1231,-130 1231,-78 1043,-78"/>
</g>
<g id="clust4" class="cluster">
<title>cluster_PagesModule_imports</title>
<polygon fill="none" stroke="#000000" points="152,-78 152,-130 1035,-130 1035,-78 152,-78"/>
</g>
<g id="clust7" class="cluster">
<title>cluster_PagesModule_providers</title>
<polygon fill="none" stroke="#000000" points="16,-78 16,-130 144,-130 144,-78 16,-78"/>
</g>
<!-- ...PAGES_COMPONENTS -->
<g id="node1" class="node">
<title>...PAGES_COMPONENTS</title>
<polygon fill="#ffffb3" stroke="#000000" points="1223.2092,-122 1050.7908,-122 1050.7908,-86 1223.2092,-86 1223.2092,-122"/>
<text text-anchor="middle" x="1137" y="-99.8" font-family="Times,serif" font-size="14.00" fill="#000000">...PAGES_COMPONENTS</text>
</g>
<!-- PagesModule -->
<g id="node2" class="node">
<title>PagesModule</title>
<polygon fill="#8dd3c7" stroke="#000000" points="673.2064,-187 670.2064,-191 649.2064,-191 646.2064,-187 580.7936,-187 580.7936,-151 673.2064,-151 673.2064,-187"/>
<text text-anchor="middle" x="627" y="-164.8" font-family="Times,serif" font-size="14.00" fill="#000000">PagesModule</text>
</g>
<!-- ...PAGES_COMPONENTS&#45;&gt;PagesModule -->
<g id="edge1" class="edge">
<title>...PAGES_COMPONENTS&#45;&gt;PagesModule</title>
<path fill="none" stroke="#000000" d="M1137,-122.2921C1137,-144.2057 1137,-178 1137,-178 1137,-178 683.1586,-178 683.1586,-178"/>
<polygon fill="#000000" stroke="#000000" points="683.1586,-174.5001 673.1586,-178 683.1586,-181.5001 683.1586,-174.5001"/>
</g>
<!-- PagesRoutingModule -->
<g id="node3" class="node">
<title>PagesRoutingModule</title>
<polygon fill="#8dd3c7" stroke="#000000" points="1026.8244,-122 1023.8244,-126 1002.8244,-126 999.8244,-122 889.1756,-122 889.1756,-86 1026.8244,-86 1026.8244,-122"/>
<text text-anchor="middle" x="958" y="-99.8" font-family="Times,serif" font-size="14.00" fill="#000000">PagesRoutingModule</text>
</g>
<!-- PagesRoutingModule&#45;&gt;PagesModule -->
<g id="edge2" class="edge">
<title>PagesRoutingModule&#45;&gt;PagesModule</title>
<path fill="none" stroke="#000000" d="M958,-122.1061C958,-141.3391 958,-169 958,-169 958,-169 683.3727,-169 683.3727,-169"/>
<polygon fill="#000000" stroke="#000000" points="683.3727,-165.5001 673.3727,-169 683.3726,-172.5001 683.3727,-165.5001"/>
</g>
<!-- ThemeModule -->
<g id="node4" class="node">
<title>ThemeModule</title>
<polygon fill="#8dd3c7" stroke="#000000" points="871.4231,-122 868.4231,-126 847.4231,-126 844.4231,-122 772.5769,-122 772.5769,-86 871.4231,-86 871.4231,-122"/>
<text text-anchor="middle" x="822" y="-99.8" font-family="Times,serif" font-size="14.00" fill="#000000">ThemeModule</text>
</g>
<!-- ThemeModule&#45;&gt;PagesModule -->
<g id="edge3" class="edge">
<title>ThemeModule&#45;&gt;PagesModule</title>
<path fill="none" stroke="#000000" d="M822,-122.027C822,-138.3976 822,-160 822,-160 822,-160 683.2123,-160 683.2123,-160"/>
<polygon fill="#000000" stroke="#000000" points="683.2123,-156.5001 673.2123,-160 683.2122,-163.5001 683.2123,-156.5001"/>
</g>
<!-- NbMenuModule -->
<g id="node5" class="node">
<title>NbMenuModule</title>
<polygon fill="#8dd3c7" stroke="#000000" points="754.8161,-122 751.8161,-126 730.8161,-126 727.8161,-122 645.1839,-122 645.1839,-86 754.8161,-86 754.8161,-122"/>
<text text-anchor="middle" x="700" y="-99.8" font-family="Times,serif" font-size="14.00" fill="#000000">NbMenuModule</text>
</g>
<!-- NbMenuModule&#45;&gt;PagesModule -->
<g id="edge4" class="edge">
<title>NbMenuModule&#45;&gt;PagesModule</title>
<path fill="none" stroke="#000000" d="M659.2227,-122.1061C659.2227,-122.1061 659.2227,-140.991 659.2227,-140.991"/>
<polygon fill="#000000" stroke="#000000" points="655.7227,-140.9909 659.2227,-150.991 662.7227,-140.991 655.7227,-140.9909"/>
</g>
<!-- UserDashboardModule -->
<g id="node6" class="node">
<title>UserDashboardModule</title>
<polygon fill="#8dd3c7" stroke="#000000" points="627.1177,-122 624.1177,-126 603.1177,-126 600.1177,-122 480.8823,-122 480.8823,-86 627.1177,-86 627.1177,-122"/>
<text text-anchor="middle" x="554" y="-99.8" font-family="Times,serif" font-size="14.00" fill="#000000">UserDashboardModule</text>
</g>
<!-- UserDashboardModule&#45;&gt;PagesModule -->
<g id="edge5" class="edge">
<title>UserDashboardModule&#45;&gt;PagesModule</title>
<path fill="none" stroke="#000000" d="M604.1028,-122.1061C604.1028,-122.1061 604.1028,-140.991 604.1028,-140.991"/>
<polygon fill="#000000" stroke="#000000" points="600.6028,-140.9909 604.1028,-150.991 607.6028,-140.991 600.6028,-140.9909"/>
</g>
<!-- MiscellaneousModule -->
<g id="node7" class="node">
<title>MiscellaneousModule</title>
<polygon fill="#8dd3c7" stroke="#000000" points="462.4144,-122 459.4144,-126 438.4144,-126 435.4144,-122 321.5856,-122 321.5856,-86 462.4144,-86 462.4144,-122"/>
<text text-anchor="middle" x="392" y="-99.8" font-family="Times,serif" font-size="14.00" fill="#000000">MiscellaneousModule</text>
</g>
<!-- MiscellaneousModule&#45;&gt;PagesModule -->
<g id="edge6" class="edge">
<title>MiscellaneousModule&#45;&gt;PagesModule</title>
<path fill="none" stroke="#000000" d="M392,-122.027C392,-138.3976 392,-160 392,-160 392,-160 570.852,-160 570.852,-160"/>
<polygon fill="#000000" stroke="#000000" points="570.852,-163.5001 580.852,-160 570.8519,-156.5001 570.852,-163.5001"/>
</g>
<!-- AuthModule.forRoot() -->
<g id="node8" class="node">
<title>AuthModule.forRoot()</title>
<polygon fill="#8dd3c7" stroke="#000000" points="303.9166,-122 300.9166,-126 279.9166,-126 276.9166,-122 160.0834,-122 160.0834,-86 303.9166,-86 303.9166,-122"/>
<text text-anchor="middle" x="232" y="-99.8" font-family="Times,serif" font-size="14.00" fill="#000000">AuthModule.forRoot()</text>
</g>
<!-- AuthModule.forRoot()&#45;&gt;PagesModule -->
<g id="edge7" class="edge">
<title>AuthModule.forRoot()&#45;&gt;PagesModule</title>
<path fill="none" stroke="#000000" d="M232,-122.1061C232,-141.3391 232,-169 232,-169 232,-169 570.5269,-169 570.5269,-169"/>
<polygon fill="#000000" stroke="#000000" points="570.527,-172.5001 580.5269,-169 570.5269,-165.5001 570.527,-172.5001"/>
</g>
<!-- PagesMenu -->
<g id="node9" class="node">
<title>PagesMenu</title>
<ellipse fill="#fdb462" stroke="#000000" cx="80" cy="-104" rx="56.1802" ry="18"/>
<text text-anchor="middle" x="80" y="-99.8" font-family="Times,serif" font-size="14.00" fill="#000000">PagesMenu</text>
</g>
<!-- PagesMenu&#45;&gt;PagesModule -->
<g id="edge8" class="edge">
<title>PagesMenu&#45;&gt;PagesModule</title>
<path fill="none" stroke="#000000" d="M80,-122.2921C80,-144.2057 80,-178 80,-178 80,-178 570.8345,-178 570.8345,-178"/>
<polygon fill="#000000" stroke="#000000" points="570.8345,-181.5001 580.8345,-178 570.8345,-174.5001 570.8345,-181.5001"/>
</g>
</g>
</svg>
