<?xml version="1.0" encoding="UTF-8" standalone="no"?>
<!DOCTYPE svg PUBLIC "-//W3C//DTD SVG 1.1//EN"
 "http://www.w3.org/Graphics/SVG/1.1/DTD/svg11.dtd">
<!-- Generated by graphviz version 2.40.1 (20161225.0304)
 -->
<!-- Title: dependencies Pages: 1 -->
<svg width="755pt" height="284pt"
 viewBox="0.00 0.00 755.00 284.00" xmlns="http://www.w3.org/2000/svg" xmlns:xlink="http://www.w3.org/1999/xlink">
<g id="graph0" class="graph" transform="scale(1 1) rotate(0) translate(4 280)">
<title>dependencies</title>
<polygon fill="#ffffff" stroke="transparent" points="-4,4 -4,-280 751,-280 751,4 -4,4"/>
<text text-anchor="start" x="352.5091" y="-42.4" font-family="sans-serif" font-weight="bold" font-size="14.00" fill="#000000">Legend</text>
<polygon fill="#ffffb3" stroke="transparent" points="139.5,-10 139.5,-30 159.5,-30 159.5,-10 139.5,-10"/>
<text text-anchor="start" x="163.129" y="-15.4" font-family="sans-serif" font-size="14.00" fill="#000000"> &#160;Declarations</text>
<polygon fill="#8dd3c7" stroke="transparent" points="252.5,-10 252.5,-30 272.5,-30 272.5,-10 252.5,-10"/>
<text text-anchor="start" x="276.2251" y="-15.4" font-family="sans-serif" font-size="14.00" fill="#000000"> &#160;Module</text>
<polygon fill="#80b1d3" stroke="transparent" points="338.5,-10 338.5,-30 358.5,-30 358.5,-10 338.5,-10"/>
<text text-anchor="start" x="362.2812" y="-15.4" font-family="sans-serif" font-size="14.00" fill="#000000"> &#160;Bootstrap</text>
<polygon fill="#fdb462" stroke="transparent" points="435.5,-10 435.5,-30 455.5,-30 455.5,-10 435.5,-10"/>
<text text-anchor="start" x="459.1732" y="-15.4" font-family="sans-serif" font-size="14.00" fill="#000000"> &#160;Providers</text>
<polygon fill="#fb8072" stroke="transparent" points="531.5,-10 531.5,-30 551.5,-30 551.5,-10 531.5,-10"/>
<text text-anchor="start" x="555.2258" y="-15.4" font-family="sans-serif" font-size="14.00" fill="#000000"> &#160;Exports</text>
<g id="clust1" class="cluster">
<title>cluster_ThemeModule</title>
<polygon fill="none" stroke="#000000" stroke-dasharray="1,5" points="8,-70 8,-268 739,-268 739,-70 8,-70"/>
</g>
<g id="clust2" class="cluster">
<title>cluster_ThemeModule_declarations</title>
<polygon fill="none" stroke="#000000" points="512,-78 512,-130 731,-130 731,-78 512,-78"/>
</g>
<g id="clust5" class="cluster">
<title>cluster_ThemeModule_imports</title>
<polygon fill="none" stroke="#000000" points="16,-78 16,-130 504,-130 504,-78 16,-78"/>
</g>
<g id="clust6" class="cluster">
<title>cluster_ThemeModule_exports</title>
<polygon fill="none" stroke="#000000" points="197,-208 197,-260 556,-260 556,-208 197,-208"/>
</g>
<!-- ...COMPONENTS -->
<g id="node1" class="node">
<title>...COMPONENTS</title>
<polygon fill="#ffffb3" stroke="#000000" points="722.8786,-122 601.1214,-122 601.1214,-86 722.8786,-86 722.8786,-122"/>
<text text-anchor="middle" x="662" y="-99.8" font-family="Times,serif" font-size="14.00" fill="#000000">...COMPONENTS</text>
</g>
<!-- ThemeModule -->
<g id="node3" class="node">
<title>ThemeModule</title>
<polygon fill="#8dd3c7" stroke="#000000" points="430.4231,-187 427.4231,-191 406.4231,-191 403.4231,-187 331.5769,-187 331.5769,-151 430.4231,-151 430.4231,-187"/>
<text text-anchor="middle" x="381" y="-164.8" font-family="Times,serif" font-size="14.00" fill="#000000">ThemeModule</text>
</g>
<!-- ...COMPONENTS&#45;&gt;ThemeModule -->
<g id="edge1" class="edge">
<title>...COMPONENTS&#45;&gt;ThemeModule</title>
<path fill="none" stroke="#000000" d="M662,-122.2843C662,-143.3211 662,-175 662,-175 662,-175 440.268,-175 440.268,-175"/>
<polygon fill="#000000" stroke="#000000" points="440.2681,-171.5001 430.268,-175 440.268,-178.5001 440.2681,-171.5001"/>
</g>
<!-- ...PIPES -->
<g id="node2" class="node">
<title>...PIPES</title>
<polygon fill="#ffffb3" stroke="#000000" points="583.561,-122 520.439,-122 520.439,-86 583.561,-86 583.561,-122"/>
<text text-anchor="middle" x="552" y="-99.8" font-family="Times,serif" font-size="14.00" fill="#000000">...PIPES</text>
</g>
<!-- ...PIPES&#45;&gt;ThemeModule -->
<g id="edge2" class="edge">
<title>...PIPES&#45;&gt;ThemeModule</title>
<path fill="none" stroke="#000000" d="M534.0267,-122.0225C534.0267,-139.3734 534.0267,-163 534.0267,-163 534.0267,-163 440.2609,-163 440.2609,-163"/>
<polygon fill="#000000" stroke="#000000" points="440.261,-159.5001 430.2609,-163 440.2609,-166.5001 440.261,-159.5001"/>
</g>
<!-- CommonModule  -->
<g id="node8" class="node">
<title>CommonModule </title>
<polygon fill="#fb8072" stroke="#000000" points="547.6677,-252 432.3323,-252 432.3323,-216 547.6677,-216 547.6677,-252"/>
<text text-anchor="middle" x="490" y="-229.8" font-family="Times,serif" font-size="14.00" fill="#000000">CommonModule </text>
</g>
<!-- ThemeModule&#45;&gt;CommonModule  -->
<g id="edge7" class="edge">
<title>ThemeModule&#45;&gt;CommonModule </title>
<path fill="none" stroke="#000000" stroke-dasharray="5,2" d="M422.2458,-187.1061C422.2458,-206.3391 422.2458,-234 422.2458,-234 422.2458,-234 423.2455,-234 423.2455,-234"/>
<polygon fill="#000000" stroke="#000000" points="422.2432,-237.5001 432.2432,-234 422.2431,-230.5001 422.2432,-237.5001"/>
</g>
<!-- ...PIPES  -->
<g id="node9" class="node">
<title>...PIPES </title>
<polygon fill="#fb8072" stroke="#000000" points="414.0624,-252 347.9376,-252 347.9376,-216 414.0624,-216 414.0624,-252"/>
<text text-anchor="middle" x="381" y="-229.8" font-family="Times,serif" font-size="14.00" fill="#000000">...PIPES </text>
</g>
<!-- ThemeModule&#45;&gt;...PIPES  -->
<g id="edge8" class="edge">
<title>ThemeModule&#45;&gt;...PIPES </title>
<path fill="none" stroke="#000000" stroke-dasharray="5,2" d="M381,-187.1061C381,-187.1061 381,-205.991 381,-205.991"/>
<polygon fill="#000000" stroke="#000000" points="377.5001,-205.9909 381,-215.991 384.5001,-205.991 377.5001,-205.9909"/>
</g>
<!-- ...COMPONENTS  -->
<g id="node10" class="node">
<title>...COMPONENTS </title>
<polygon fill="#fb8072" stroke="#000000" points="329.3781,-252 204.6219,-252 204.6219,-216 329.3781,-216 329.3781,-252"/>
<text text-anchor="middle" x="267" y="-229.8" font-family="Times,serif" font-size="14.00" fill="#000000">...COMPONENTS </text>
</g>
<!-- ThemeModule&#45;&gt;...COMPONENTS  -->
<g id="edge9" class="edge">
<title>ThemeModule&#45;&gt;...COMPONENTS </title>
<path fill="none" stroke="#000000" stroke-dasharray="5,2" d="M339.7542,-187.1061C339.7542,-206.3391 339.7542,-234 339.7542,-234 339.7542,-234 338.7426,-234 338.7426,-234"/>
<polygon fill="#000000" stroke="#000000" points="339.6381,-230.5001 329.638,-234 339.638,-237.5001 339.6381,-230.5001"/>
</g>
<!-- CommonModule -->
<g id="node4" class="node">
<title>CommonModule</title>
<polygon fill="#8dd3c7" stroke="#000000" points="495.6681,-122 492.6681,-126 471.6681,-126 468.6681,-122 384.3319,-122 384.3319,-86 495.6681,-86 495.6681,-122"/>
<text text-anchor="middle" x="440" y="-99.8" font-family="Times,serif" font-size="14.00" fill="#000000">CommonModule</text>
</g>
<!-- CommonModule&#45;&gt;ThemeModule -->
<g id="edge3" class="edge">
<title>CommonModule&#45;&gt;ThemeModule</title>
<path fill="none" stroke="#000000" d="M407.1887,-122.1061C407.1887,-122.1061 407.1887,-140.991 407.1887,-140.991"/>
<polygon fill="#000000" stroke="#000000" points="403.6887,-140.9909 407.1887,-150.991 410.6887,-140.991 403.6887,-140.9909"/>
</g>
<!-- AuthModule -->
<g id="node5" class="node">
<title>AuthModule</title>
<polygon fill="#8dd3c7" stroke="#000000" points="365.5482,-122 362.5482,-126 341.5482,-126 338.5482,-122 278.4518,-122 278.4518,-86 365.5482,-86 365.5482,-122"/>
<text text-anchor="middle" x="322" y="-99.8" font-family="Times,serif" font-size="14.00" fill="#000000">AuthModule</text>
</g>
<!-- AuthModule&#45;&gt;ThemeModule -->
<g id="edge4" class="edge">
<title>AuthModule&#45;&gt;ThemeModule</title>
<path fill="none" stroke="#000000" d="M348.7812,-122.1061C348.7812,-122.1061 348.7812,-140.991 348.7812,-140.991"/>
<polygon fill="#000000" stroke="#000000" points="345.2813,-140.9909 348.7812,-150.991 352.2813,-140.991 345.2813,-140.9909"/>
</g>
<!-- ...NB_MODULES -->
<g id="node6" class="node">
<title>...NB_MODULES</title>
<polygon fill="#8dd3c7" stroke="#000000" points="260.0961,-122 257.0961,-126 236.0961,-126 233.0961,-122 139.9039,-122 139.9039,-86 260.0961,-86 260.0961,-122"/>
<text text-anchor="middle" x="200" y="-99.8" font-family="Times,serif" font-size="14.00" fill="#000000">...NB_MODULES</text>
</g>
<!-- ...NB_MODULES&#45;&gt;ThemeModule -->
<g id="edge5" class="edge">
<title>...NB_MODULES&#45;&gt;ThemeModule</title>
<path fill="none" stroke="#000000" d="M232.4294,-122.0225C232.4294,-139.3734 232.4294,-163 232.4294,-163 232.4294,-163 321.5281,-163 321.5281,-163"/>
<polygon fill="#000000" stroke="#000000" points="321.5282,-166.5001 331.5281,-163 321.5281,-159.5001 321.5282,-166.5001"/>
</g>
<!-- RouterModule -->
<g id="node7" class="node">
<title>RouterModule</title>
<polygon fill="#8dd3c7" stroke="#000000" points="121.6528,-122 118.6528,-126 97.6528,-126 94.6528,-122 24.3472,-122 24.3472,-86 121.6528,-86 121.6528,-122"/>
<text text-anchor="middle" x="73" y="-99.8" font-family="Times,serif" font-size="14.00" fill="#000000">RouterModule</text>
</g>
<!-- RouterModule&#45;&gt;ThemeModule -->
<g id="edge6" class="edge">
<title>RouterModule&#45;&gt;ThemeModule</title>
<path fill="none" stroke="#000000" d="M73,-122.2843C73,-143.3211 73,-175 73,-175 73,-175 321.5145,-175 321.5145,-175"/>
<polygon fill="#000000" stroke="#000000" points="321.5145,-178.5001 331.5145,-175 321.5144,-171.5001 321.5145,-178.5001"/>
</g>
</g>
</svg>
