<?xml version="1.0" encoding="UTF-8" standalone="no"?>
<!DOCTYPE svg PUBLIC "-//W3C//DTD SVG 1.1//EN"
 "http://www.w3.org/Graphics/SVG/1.1/DTD/svg11.dtd">
<!-- Generated by graphviz version 2.40.1 (20161225.0304)
 -->
<!-- Title: dependencies Pages: 1 -->
<svg width="883pt" height="211pt"
 viewBox="0.00 0.00 883.00 211.00" xmlns="http://www.w3.org/2000/svg" xmlns:xlink="http://www.w3.org/1999/xlink">
<g id="graph0" class="graph" transform="scale(1 1) rotate(0) translate(4 207)">
<title>dependencies</title>
<polygon fill="#ffffff" stroke="transparent" points="-4,4 -4,-207 879,-207 879,4 -4,4"/>
<text text-anchor="start" x="416.5091" y="-42.4" font-family="sans-serif" font-weight="bold" font-size="14.00" fill="#000000">Legend</text>
<polygon fill="#ffffb3" stroke="transparent" points="203.5,-10 203.5,-30 223.5,-30 223.5,-10 203.5,-10"/>
<text text-anchor="start" x="227.129" y="-15.4" font-family="sans-serif" font-size="14.00" fill="#000000"> &#160;Declarations</text>
<polygon fill="#8dd3c7" stroke="transparent" points="316.5,-10 316.5,-30 336.5,-30 336.5,-10 316.5,-10"/>
<text text-anchor="start" x="340.2251" y="-15.4" font-family="sans-serif" font-size="14.00" fill="#000000"> &#160;Module</text>
<polygon fill="#80b1d3" stroke="transparent" points="402.5,-10 402.5,-30 422.5,-30 422.5,-10 402.5,-10"/>
<text text-anchor="start" x="426.2812" y="-15.4" font-family="sans-serif" font-size="14.00" fill="#000000"> &#160;Bootstrap</text>
<polygon fill="#fdb462" stroke="transparent" points="499.5,-10 499.5,-30 519.5,-30 519.5,-10 499.5,-10"/>
<text text-anchor="start" x="523.1732" y="-15.4" font-family="sans-serif" font-size="14.00" fill="#000000"> &#160;Providers</text>
<polygon fill="#fb8072" stroke="transparent" points="595.5,-10 595.5,-30 615.5,-30 615.5,-10 595.5,-10"/>
<text text-anchor="start" x="619.2258" y="-15.4" font-family="sans-serif" font-size="14.00" fill="#000000"> &#160;Exports</text>
<g id="clust1" class="cluster">
<title>cluster_StaticModule</title>
<polygon fill="none" stroke="#000000" stroke-dasharray="1,5" points="8,-70 8,-195 867,-195 867,-70 8,-70"/>
</g>
<g id="clust2" class="cluster">
<title>cluster_StaticModule_declarations</title>
<polygon fill="none" stroke="#000000" points="556,-78 556,-130 859,-130 859,-78 556,-78"/>
</g>
<g id="clust5" class="cluster">
<title>cluster_StaticModule_imports</title>
<polygon fill="none" stroke="#000000" points="16,-78 16,-130 548,-130 548,-78 16,-78"/>
</g>
<!-- LandingPageComponent -->
<g id="node1" class="node">
<title>LandingPageComponent</title>
<polygon fill="#ffffb3" stroke="#000000" points="850.7021,-122 695.2979,-122 695.2979,-86 850.7021,-86 850.7021,-122"/>
<text text-anchor="middle" x="773" y="-99.8" font-family="Times,serif" font-size="14.00" fill="#000000">LandingPageComponent</text>
</g>
<!-- StaticModule -->
<g id="node3" class="node">
<title>StaticModule</title>
<polygon fill="#8dd3c7" stroke="#000000" points="446.9344,-187 443.9344,-191 422.9344,-191 419.9344,-187 355.0656,-187 355.0656,-151 446.9344,-151 446.9344,-187"/>
<text text-anchor="middle" x="401" y="-164.8" font-family="Times,serif" font-size="14.00" fill="#000000">StaticModule</text>
</g>
<!-- LandingPageComponent&#45;&gt;StaticModule -->
<g id="edge1" class="edge">
<title>LandingPageComponent&#45;&gt;StaticModule</title>
<path fill="none" stroke="#000000" d="M773,-122.2843C773,-143.3211 773,-175 773,-175 773,-175 456.9876,-175 456.9876,-175"/>
<polygon fill="#000000" stroke="#000000" points="456.9876,-171.5001 446.9876,-175 456.9876,-178.5001 456.9876,-171.5001"/>
</g>
<!-- StaticComponent -->
<g id="node2" class="node">
<title>StaticComponent</title>
<polygon fill="#ffffb3" stroke="#000000" points="677.7162,-122 564.2838,-122 564.2838,-86 677.7162,-86 677.7162,-122"/>
<text text-anchor="middle" x="621" y="-99.8" font-family="Times,serif" font-size="14.00" fill="#000000">StaticComponent</text>
</g>
<!-- StaticComponent&#45;&gt;StaticModule -->
<g id="edge2" class="edge">
<title>StaticComponent&#45;&gt;StaticModule</title>
<path fill="none" stroke="#000000" d="M621,-122.0225C621,-139.3734 621,-163 621,-163 621,-163 456.8514,-163 456.8514,-163"/>
<polygon fill="#000000" stroke="#000000" points="456.8515,-159.5001 446.8514,-163 456.8514,-166.5001 456.8515,-159.5001"/>
</g>
<!-- StaticRoutingModule -->
<g id="node4" class="node">
<title>StaticRoutingModule</title>
<polygon fill="#8dd3c7" stroke="#000000" points="540.0519,-122 537.0519,-126 516.0519,-126 513.0519,-122 403.9481,-122 403.9481,-86 540.0519,-86 540.0519,-122"/>
<text text-anchor="middle" x="472" y="-99.8" font-family="Times,serif" font-size="14.00" fill="#000000">StaticRoutingModule</text>
</g>
<!-- StaticRoutingModule&#45;&gt;StaticModule -->
<g id="edge3" class="edge">
<title>StaticRoutingModule&#45;&gt;StaticModule</title>
<path fill="none" stroke="#000000" d="M425.2206,-122.1061C425.2206,-122.1061 425.2206,-140.991 425.2206,-140.991"/>
<polygon fill="#000000" stroke="#000000" points="421.7206,-140.9909 425.2206,-150.991 428.7206,-140.991 421.7206,-140.9909"/>
</g>
<!-- CommonModule -->
<g id="node5" class="node">
<title>CommonModule</title>
<polygon fill="#8dd3c7" stroke="#000000" points="385.6681,-122 382.6681,-126 361.6681,-126 358.6681,-122 274.3319,-122 274.3319,-86 385.6681,-86 385.6681,-122"/>
<text text-anchor="middle" x="330" y="-99.8" font-family="Times,serif" font-size="14.00" fill="#000000">CommonModule</text>
</g>
<!-- CommonModule&#45;&gt;StaticModule -->
<g id="edge4" class="edge">
<title>CommonModule&#45;&gt;StaticModule</title>
<path fill="none" stroke="#000000" d="M370.5585,-122.1061C370.5585,-122.1061 370.5585,-140.991 370.5585,-140.991"/>
<polygon fill="#000000" stroke="#000000" points="367.0586,-140.9909 370.5585,-150.991 374.0586,-140.991 367.0586,-140.9909"/>
</g>
<!-- ThemeModule -->
<g id="node6" class="node">
<title>ThemeModule</title>
<polygon fill="#8dd3c7" stroke="#000000" points="256.4231,-122 253.4231,-126 232.4231,-126 229.4231,-122 157.5769,-122 157.5769,-86 256.4231,-86 256.4231,-122"/>
<text text-anchor="middle" x="207" y="-99.8" font-family="Times,serif" font-size="14.00" fill="#000000">ThemeModule</text>
</g>
<!-- ThemeModule&#45;&gt;StaticModule -->
<g id="edge5" class="edge">
<title>ThemeModule&#45;&gt;StaticModule</title>
<path fill="none" stroke="#000000" d="M207,-122.0225C207,-139.3734 207,-163 207,-163 207,-163 345.0247,-163 345.0247,-163"/>
<polygon fill="#000000" stroke="#000000" points="345.0247,-166.5001 355.0247,-163 345.0247,-159.5001 345.0247,-166.5001"/>
</g>
<!-- NbLayoutModule -->
<g id="node7" class="node">
<title>NbLayoutModule</title>
<polygon fill="#8dd3c7" stroke="#000000" points="140.3146,-122 137.3146,-126 116.3146,-126 113.3146,-122 23.6854,-122 23.6854,-86 140.3146,-86 140.3146,-122"/>
<text text-anchor="middle" x="82" y="-99.8" font-family="Times,serif" font-size="14.00" fill="#000000">NbLayoutModule</text>
</g>
<!-- NbLayoutModule&#45;&gt;StaticModule -->
<g id="edge6" class="edge">
<title>NbLayoutModule&#45;&gt;StaticModule</title>
<path fill="none" stroke="#000000" d="M82,-122.2843C82,-143.3211 82,-175 82,-175 82,-175 344.9553,-175 344.9553,-175"/>
<polygon fill="#000000" stroke="#000000" points="344.9554,-178.5001 354.9553,-175 344.9553,-171.5001 344.9554,-178.5001"/>
</g>
</g>
</svg>
