<?xml version="1.0" encoding="UTF-8" standalone="no"?>
<!DOCTYPE svg PUBLIC "-//W3C//DTD SVG 1.1//EN"
 "http://www.w3.org/Graphics/SVG/1.1/DTD/svg11.dtd">
<!-- Generated by graphviz version 2.40.1 (20161225.0304)
 -->
<!-- Title: dependencies Pages: 1 -->
<svg width="619pt" height="211pt"
 viewBox="0.00 0.00 619.00 211.00" xmlns="http://www.w3.org/2000/svg" xmlns:xlink="http://www.w3.org/1999/xlink">
<g id="graph0" class="graph" transform="scale(1 1) rotate(0) translate(4 207)">
<title>dependencies</title>
<polygon fill="#ffffff" stroke="transparent" points="-4,4 -4,-207 615,-207 615,4 -4,4"/>
<text text-anchor="start" x="284.5091" y="-42.4" font-family="sans-serif" font-weight="bold" font-size="14.00" fill="#000000">Legend</text>
<polygon fill="#ffffb3" stroke="transparent" points="71.5,-10 71.5,-30 91.5,-30 91.5,-10 71.5,-10"/>
<text text-anchor="start" x="95.129" y="-15.4" font-family="sans-serif" font-size="14.00" fill="#000000"> &#160;Declarations</text>
<polygon fill="#8dd3c7" stroke="transparent" points="184.5,-10 184.5,-30 204.5,-30 204.5,-10 184.5,-10"/>
<text text-anchor="start" x="208.2251" y="-15.4" font-family="sans-serif" font-size="14.00" fill="#000000"> &#160;Module</text>
<polygon fill="#80b1d3" stroke="transparent" points="270.5,-10 270.5,-30 290.5,-30 290.5,-10 270.5,-10"/>
<text text-anchor="start" x="294.2812" y="-15.4" font-family="sans-serif" font-size="14.00" fill="#000000"> &#160;Bootstrap</text>
<polygon fill="#fdb462" stroke="transparent" points="367.5,-10 367.5,-30 387.5,-30 387.5,-10 367.5,-10"/>
<text text-anchor="start" x="391.1732" y="-15.4" font-family="sans-serif" font-size="14.00" fill="#000000"> &#160;Providers</text>
<polygon fill="#fb8072" stroke="transparent" points="463.5,-10 463.5,-30 483.5,-30 483.5,-10 463.5,-10"/>
<text text-anchor="start" x="487.2258" y="-15.4" font-family="sans-serif" font-size="14.00" fill="#000000"> &#160;Exports</text>
<g id="clust1" class="cluster">
<title>cluster_StaticModule</title>
<polygon fill="none" stroke="#000000" stroke-dasharray="1,5" points="8,-70 8,-195 603,-195 603,-70 8,-70"/>
</g>
<g id="clust2" class="cluster">
<title>cluster_StaticModule_declarations</title>
<polygon fill="none" stroke="#000000" points="292,-78 292,-130 595,-130 595,-78 292,-78"/>
</g>
<g id="clust5" class="cluster">
<title>cluster_StaticModule_imports</title>
<polygon fill="none" stroke="#000000" points="16,-78 16,-130 284,-130 284,-78 16,-78"/>
</g>
<!-- LandingPageComponent -->
<g id="node1" class="node">
<title>LandingPageComponent</title>
<polygon fill="#ffffb3" stroke="#000000" points="586.7021,-122 431.2979,-122 431.2979,-86 586.7021,-86 586.7021,-122"/>
<text text-anchor="middle" x="509" y="-99.8" font-family="Times,serif" font-size="14.00" fill="#000000">LandingPageComponent</text>
</g>
<!-- StaticModule -->
<g id="node3" class="node">
<title>StaticModule</title>
<polygon fill="#8dd3c7" stroke="#000000" points="327.9344,-187 324.9344,-191 303.9344,-191 300.9344,-187 236.0656,-187 236.0656,-151 327.9344,-151 327.9344,-187"/>
<text text-anchor="middle" x="282" y="-164.8" font-family="Times,serif" font-size="14.00" fill="#000000">StaticModule</text>
</g>
<!-- LandingPageComponent&#45;&gt;StaticModule -->
<g id="edge1" class="edge">
<title>LandingPageComponent&#45;&gt;StaticModule</title>
<path fill="none" stroke="#000000" d="M509,-122.1061C509,-141.3391 509,-169 509,-169 509,-169 337.9368,-169 337.9368,-169"/>
<polygon fill="#000000" stroke="#000000" points="337.9369,-165.5001 327.9368,-169 337.9368,-172.5001 337.9369,-165.5001"/>
</g>
<!-- StaticComponent -->
<g id="node2" class="node">
<title>StaticComponent</title>
<polygon fill="#ffffb3" stroke="#000000" points="413.7162,-122 300.2838,-122 300.2838,-86 413.7162,-86 413.7162,-122"/>
<text text-anchor="middle" x="357" y="-99.8" font-family="Times,serif" font-size="14.00" fill="#000000">StaticComponent</text>
</g>
<!-- StaticComponent&#45;&gt;StaticModule -->
<g id="edge2" class="edge">
<title>StaticComponent&#45;&gt;StaticModule</title>
<path fill="none" stroke="#000000" d="M314.0544,-122.1061C314.0544,-122.1061 314.0544,-140.991 314.0544,-140.991"/>
<polygon fill="#000000" stroke="#000000" points="310.5544,-140.9909 314.0544,-150.991 317.5544,-140.991 310.5544,-140.9909"/>
</g>
<!-- StaticRoutingModule -->
<g id="node4" class="node">
<title>StaticRoutingModule</title>
<polygon fill="#8dd3c7" stroke="#000000" points="276.0519,-122 273.0519,-126 252.0519,-126 249.0519,-122 139.9481,-122 139.9481,-86 276.0519,-86 276.0519,-122"/>
<text text-anchor="middle" x="208" y="-99.8" font-family="Times,serif" font-size="14.00" fill="#000000">StaticRoutingModule</text>
</g>
<!-- StaticRoutingModule&#45;&gt;StaticModule -->
<g id="edge3" class="edge">
<title>StaticRoutingModule&#45;&gt;StaticModule</title>
<path fill="none" stroke="#000000" d="M256.2795,-122.1061C256.2795,-122.1061 256.2795,-140.991 256.2795,-140.991"/>
<polygon fill="#000000" stroke="#000000" points="252.7795,-140.9909 256.2795,-150.991 259.7795,-140.991 252.7795,-140.9909"/>
</g>
<!-- ThemeModule -->
<g id="node5" class="node">
<title>ThemeModule</title>
<polygon fill="#8dd3c7" stroke="#000000" points="122.4231,-122 119.4231,-126 98.4231,-126 95.4231,-122 23.5769,-122 23.5769,-86 122.4231,-86 122.4231,-122"/>
<text text-anchor="middle" x="73" y="-99.8" font-family="Times,serif" font-size="14.00" fill="#000000">ThemeModule</text>
</g>
<!-- ThemeModule&#45;&gt;StaticModule -->
<g id="edge4" class="edge">
<title>ThemeModule&#45;&gt;StaticModule</title>
<path fill="none" stroke="#000000" d="M73,-122.1061C73,-141.3391 73,-169 73,-169 73,-169 226.1341,-169 226.1341,-169"/>
<polygon fill="#000000" stroke="#000000" points="226.1341,-172.5001 236.1341,-169 226.134,-165.5001 226.1341,-172.5001"/>
</g>
</g>
</svg>
