<?xml version="1.0" encoding="UTF-8" standalone="no"?>
<!DOCTYPE svg PUBLIC "-//W3C//DTD SVG 1.1//EN"
 "http://www.w3.org/Graphics/SVG/1.1/DTD/svg11.dtd">
<!-- Generated by graphviz version 2.40.1 (20161225.0304)
 -->
<!-- Title: dependencies Pages: 1 -->
<svg width="2734pt" height="284pt"
 viewBox="0.00 0.00 2734.00 284.00" xmlns="http://www.w3.org/2000/svg" xmlns:xlink="http://www.w3.org/1999/xlink">
<g id="graph0" class="graph" transform="scale(1 1) rotate(0) translate(4 280)">
<title>dependencies</title>
<polygon fill="#ffffff" stroke="transparent" points="-4,4 -4,-280 2730,-280 2730,4 -4,4"/>
<text text-anchor="start" x="1342.0091" y="-42.4" font-family="sans-serif" font-weight="bold" font-size="14.00" fill="#000000">Legend</text>
<polygon fill="#ffffb3" stroke="transparent" points="1129,-10 1129,-30 1149,-30 1149,-10 1129,-10"/>
<text text-anchor="start" x="1152.629" y="-15.4" font-family="sans-serif" font-size="14.00" fill="#000000"> &#160;Declarations</text>
<polygon fill="#8dd3c7" stroke="transparent" points="1242,-10 1242,-30 1262,-30 1262,-10 1242,-10"/>
<text text-anchor="start" x="1265.7251" y="-15.4" font-family="sans-serif" font-size="14.00" fill="#000000"> &#160;Module</text>
<polygon fill="#80b1d3" stroke="transparent" points="1328,-10 1328,-30 1348,-30 1348,-10 1328,-10"/>
<text text-anchor="start" x="1351.7812" y="-15.4" font-family="sans-serif" font-size="14.00" fill="#000000"> &#160;Bootstrap</text>
<polygon fill="#fdb462" stroke="transparent" points="1425,-10 1425,-30 1445,-30 1445,-10 1425,-10"/>
<text text-anchor="start" x="1448.6732" y="-15.4" font-family="sans-serif" font-size="14.00" fill="#000000"> &#160;Providers</text>
<polygon fill="#fb8072" stroke="transparent" points="1521,-10 1521,-30 1541,-30 1541,-10 1521,-10"/>
<text text-anchor="start" x="1544.7258" y="-15.4" font-family="sans-serif" font-size="14.00" fill="#000000"> &#160;Exports</text>
<g id="clust1" class="cluster">
<title>cluster_AuthModule</title>
<polygon fill="none" stroke="#000000" stroke-dasharray="1,5" points="8,-70 8,-268 2718,-268 2718,-70 8,-70"/>
</g>
<g id="clust2" class="cluster">
<title>cluster_AuthModule_declarations</title>
<polygon fill="none" stroke="#000000" points="2491,-78 2491,-130 2710,-130 2710,-78 2491,-78"/>
</g>
<g id="clust5" class="cluster">
<title>cluster_AuthModule_imports</title>
<polygon fill="none" stroke="#000000" points="1415,-78 1415,-130 2483,-130 2483,-78 1415,-78"/>
</g>
<g id="clust6" class="cluster">
<title>cluster_AuthModule_exports</title>
<polygon fill="none" stroke="#000000" points="1855,-208 1855,-260 1937,-260 1937,-208 1855,-208"/>
</g>
<g id="clust8" class="cluster">
<title>cluster_AuthModule_providers</title>
<polygon fill="none" stroke="#000000" points="16,-78 16,-130 1407,-130 1407,-78 16,-78"/>
</g>
<!-- ...PIPES -->
<g id="node1" class="node">
<title>...PIPES</title>
<polygon fill="#ffffb3" stroke="#000000" points="2701.561,-122 2638.439,-122 2638.439,-86 2701.561,-86 2701.561,-122"/>
<text text-anchor="middle" x="2670" y="-99.8" font-family="Times,serif" font-size="14.00" fill="#000000">...PIPES</text>
</g>
<!-- AuthModule -->
<g id="node3" class="node">
<title>AuthModule</title>
<polygon fill="#8dd3c7" stroke="#000000" points="1939.5482,-187 1936.5482,-191 1915.5482,-191 1912.5482,-187 1852.4518,-187 1852.4518,-151 1939.5482,-151 1939.5482,-187"/>
<text text-anchor="middle" x="1896" y="-164.8" font-family="Times,serif" font-size="14.00" fill="#000000">AuthModule</text>
</g>
<!-- ...PIPES&#45;&gt;AuthModule -->
<g id="edge1" class="edge">
<title>...PIPES&#45;&gt;AuthModule</title>
<path fill="none" stroke="#000000" d="M2670,-122.2479C2670,-145.0179 2670,-181 2670,-181 2670,-181 1949.5513,-181 1949.5513,-181"/>
<polygon fill="#000000" stroke="#000000" points="1949.5513,-177.5001 1939.5513,-181 1949.5513,-184.5001 1949.5513,-177.5001"/>
</g>
<!-- ...COMPONENTS -->
<g id="node2" class="node">
<title>...COMPONENTS</title>
<polygon fill="#ffffb3" stroke="#000000" points="2620.8786,-122 2499.1214,-122 2499.1214,-86 2620.8786,-86 2620.8786,-122"/>
<text text-anchor="middle" x="2560" y="-99.8" font-family="Times,serif" font-size="14.00" fill="#000000">...COMPONENTS</text>
</g>
<!-- ...COMPONENTS&#45;&gt;AuthModule -->
<g id="edge2" class="edge">
<title>...COMPONENTS&#45;&gt;AuthModule</title>
<path fill="none" stroke="#000000" d="M2560,-122.2843C2560,-143.3211 2560,-175 2560,-175 2560,-175 1949.5669,-175 1949.5669,-175"/>
<polygon fill="#000000" stroke="#000000" points="1949.5669,-171.5001 1939.5669,-175 1949.5669,-178.5001 1949.5669,-171.5001"/>
</g>
<!-- ...PIPES  -->
<g id="node11" class="node">
<title>...PIPES </title>
<polygon fill="#fb8072" stroke="#000000" points="1929.0624,-252 1862.9376,-252 1862.9376,-216 1929.0624,-216 1929.0624,-252"/>
<text text-anchor="middle" x="1896" y="-229.8" font-family="Times,serif" font-size="14.00" fill="#000000">...PIPES </text>
</g>
<!-- AuthModule&#45;&gt;...PIPES  -->
<g id="edge10" class="edge">
<title>AuthModule&#45;&gt;...PIPES </title>
<path fill="none" stroke="#000000" stroke-dasharray="5,2" d="M1896,-187.1061C1896,-187.1061 1896,-205.991 1896,-205.991"/>
<polygon fill="#000000" stroke="#000000" points="1892.5001,-205.9909 1896,-215.991 1899.5001,-205.991 1892.5001,-205.9909"/>
</g>
<!-- AuthRoutingModule -->
<g id="node4" class="node">
<title>AuthRoutingModule</title>
<polygon fill="#8dd3c7" stroke="#000000" points="2475.1652,-122 2472.1652,-126 2451.1652,-126 2448.1652,-122 2342.8348,-122 2342.8348,-86 2475.1652,-86 2475.1652,-122"/>
<text text-anchor="middle" x="2409" y="-99.8" font-family="Times,serif" font-size="14.00" fill="#000000">AuthRoutingModule</text>
</g>
<!-- AuthRoutingModule&#45;&gt;AuthModule -->
<g id="edge3" class="edge">
<title>AuthRoutingModule&#45;&gt;AuthModule</title>
<path fill="none" stroke="#000000" d="M2409,-122.1061C2409,-141.3391 2409,-169 2409,-169 2409,-169 1949.7381,-169 1949.7381,-169"/>
<polygon fill="#000000" stroke="#000000" points="1949.7381,-165.5001 1939.7381,-169 1949.7381,-172.5001 1949.7381,-165.5001"/>
</g>
<!-- ReactiveFormsModule -->
<g id="node5" class="node">
<title>ReactiveFormsModule</title>
<polygon fill="#8dd3c7" stroke="#000000" points="2325.3047,-122 2322.3047,-126 2301.3047,-126 2298.3047,-122 2180.6953,-122 2180.6953,-86 2325.3047,-86 2325.3047,-122"/>
<text text-anchor="middle" x="2253" y="-99.8" font-family="Times,serif" font-size="14.00" fill="#000000">ReactiveFormsModule</text>
</g>
<!-- ReactiveFormsModule&#45;&gt;AuthModule -->
<g id="edge4" class="edge">
<title>ReactiveFormsModule&#45;&gt;AuthModule</title>
<path fill="none" stroke="#000000" d="M2253,-122.0225C2253,-139.3734 2253,-163 2253,-163 2253,-163 1949.7752,-163 1949.7752,-163"/>
<polygon fill="#000000" stroke="#000000" points="1949.7752,-159.5001 1939.7752,-163 1949.7752,-166.5001 1949.7752,-159.5001"/>
</g>
<!-- CommonModule -->
<g id="node6" class="node">
<title>CommonModule</title>
<polygon fill="#8dd3c7" stroke="#000000" points="2162.6681,-122 2159.6681,-126 2138.6681,-126 2135.6681,-122 2051.3319,-122 2051.3319,-86 2162.6681,-86 2162.6681,-122"/>
<text text-anchor="middle" x="2107" y="-99.8" font-family="Times,serif" font-size="14.00" fill="#000000">CommonModule</text>
</g>
<!-- CommonModule&#45;&gt;AuthModule -->
<g id="edge5" class="edge">
<title>CommonModule&#45;&gt;AuthModule</title>
<path fill="none" stroke="#000000" d="M2107,-122.2396C2107,-137.5706 2107,-157 2107,-157 2107,-157 1949.7193,-157 1949.7193,-157"/>
<polygon fill="#000000" stroke="#000000" points="1949.7194,-153.5001 1939.7193,-157 1949.7193,-160.5001 1949.7194,-153.5001"/>
</g>
<!-- ComponentsModule -->
<g id="node7" class="node">
<title>ComponentsModule</title>
<polygon fill="#8dd3c7" stroke="#000000" points="2033.3272,-122 2030.3272,-126 2009.3272,-126 2006.3272,-122 1902.6728,-122 1902.6728,-86 2033.3272,-86 2033.3272,-122"/>
<text text-anchor="middle" x="1968" y="-99.8" font-family="Times,serif" font-size="14.00" fill="#000000">ComponentsModule</text>
</g>
<!-- ComponentsModule&#45;&gt;AuthModule -->
<g id="edge6" class="edge">
<title>ComponentsModule&#45;&gt;AuthModule</title>
<path fill="none" stroke="#000000" d="M1921.3051,-122.1061C1921.3051,-122.1061 1921.3051,-140.991 1921.3051,-140.991"/>
<polygon fill="#000000" stroke="#000000" points="1917.8051,-140.9909 1921.3051,-150.991 1924.8051,-140.991 1917.8051,-140.9909"/>
</g>
<!-- ...NB_MODULES -->
<g id="node8" class="node">
<title>...NB_MODULES</title>
<polygon fill="#8dd3c7" stroke="#000000" points="1885.0961,-122 1882.0961,-126 1861.0961,-126 1858.0961,-122 1764.9039,-122 1764.9039,-86 1885.0961,-86 1885.0961,-122"/>
<text text-anchor="middle" x="1825" y="-99.8" font-family="Times,serif" font-size="14.00" fill="#000000">...NB_MODULES</text>
</g>
<!-- ...NB_MODULES&#45;&gt;AuthModule -->
<g id="edge7" class="edge">
<title>...NB_MODULES&#45;&gt;AuthModule</title>
<path fill="none" stroke="#000000" d="M1868.7621,-122.1061C1868.7621,-122.1061 1868.7621,-140.991 1868.7621,-140.991"/>
<polygon fill="#000000" stroke="#000000" points="1865.2622,-140.9909 1868.7621,-150.991 1872.2622,-140.991 1865.2622,-140.9909"/>
</g>
<!-- NbAuthModule.forRoot(args) -->
<g id="node9" class="node">
<title>NbAuthModule.forRoot(args)</title>
<polygon fill="#8dd3c7" stroke="#000000" points="1747.3433,-122 1744.3433,-126 1723.3433,-126 1720.3433,-122 1562.6567,-122 1562.6567,-86 1747.3433,-86 1747.3433,-122"/>
<text text-anchor="middle" x="1655" y="-99.8" font-family="Times,serif" font-size="14.00" fill="#000000">NbAuthModule.forRoot(args)</text>
</g>
<!-- NbAuthModule.forRoot(args)&#45;&gt;AuthModule -->
<g id="edge8" class="edge">
<title>NbAuthModule.forRoot(args)&#45;&gt;AuthModule</title>
<path fill="none" stroke="#000000" d="M1655,-122.2396C1655,-137.5706 1655,-157 1655,-157 1655,-157 1842.3567,-157 1842.3567,-157"/>
<polygon fill="#000000" stroke="#000000" points="1842.3568,-160.5001 1852.3567,-157 1842.3567,-153.5001 1842.3568,-160.5001"/>
</g>
<!-- FileUploadModule -->
<g id="node10" class="node">
<title>FileUploadModule</title>
<polygon fill="#8dd3c7" stroke="#000000" points="1545.0409,-122 1542.0409,-126 1521.0409,-126 1518.0409,-122 1422.9591,-122 1422.9591,-86 1545.0409,-86 1545.0409,-122"/>
<text text-anchor="middle" x="1484" y="-99.8" font-family="Times,serif" font-size="14.00" fill="#000000">FileUploadModule</text>
</g>
<!-- FileUploadModule&#45;&gt;AuthModule -->
<g id="edge9" class="edge">
<title>FileUploadModule&#45;&gt;AuthModule</title>
<path fill="none" stroke="#000000" d="M1484,-122.0225C1484,-139.3734 1484,-163 1484,-163 1484,-163 1842.2988,-163 1842.2988,-163"/>
<polygon fill="#000000" stroke="#000000" points="1842.2989,-166.5001 1852.2988,-163 1842.2988,-159.5001 1842.2989,-166.5001"/>
</g>
<!-- NbSecurityModule.forRoot.???.providers -->
<g id="node12" class="node">
<title>NbSecurityModule.forRoot.???.providers</title>
<ellipse fill="#fdb462" stroke="#000000" cx="1227" cy="-104" rx="171.8366" ry="18"/>
<text text-anchor="middle" x="1227" y="-99.8" font-family="Times,serif" font-size="14.00" fill="#000000">NbSecurityModule.forRoot.???.providers</text>
</g>
<!-- NbSecurityModule.forRoot.???.providers&#45;&gt;AuthModule -->
<g id="edge11" class="edge">
<title>NbSecurityModule.forRoot.???.providers&#45;&gt;AuthModule</title>
<path fill="none" stroke="#000000" d="M1227,-122.1061C1227,-141.3391 1227,-169 1227,-169 1227,-169 1842.3631,-169 1842.3631,-169"/>
<polygon fill="#000000" stroke="#000000" points="1842.3631,-172.5001 1852.3631,-169 1842.3631,-165.5001 1842.3631,-172.5001"/>
</g>
<!-- { provide: NbRoleProvider, useClass: RoleProvider } -->
<g id="node13" class="node">
<title>{ provide: NbRoleProvider, useClass: RoleProvider }</title>
<ellipse fill="#fdb462" stroke="#000000" cx="819" cy="-104" rx="218.4701" ry="18"/>
<text text-anchor="middle" x="819" y="-99.8" font-family="Times,serif" font-size="14.00" fill="#000000">{ provide: NbRoleProvider, useClass: RoleProvider }</text>
</g>
<!-- { provide: NbRoleProvider, useClass: RoleProvider }&#45;&gt;AuthModule -->
<g id="edge12" class="edge">
<title>{ provide: NbRoleProvider, useClass: RoleProvider }&#45;&gt;AuthModule</title>
<path fill="none" stroke="#000000" d="M819,-122.2843C819,-143.3211 819,-175 819,-175 819,-175 1842.4464,-175 1842.4464,-175"/>
<polygon fill="#000000" stroke="#000000" points="1842.4465,-178.5001 1852.4464,-175 1842.4464,-171.5001 1842.4465,-178.5001"/>
</g>
<!-- { provide: NbTokenLocalStorage, useClass: NbTokenLocalStorage } -->
<g id="node14" class="node">
<title>{ provide: NbTokenLocalStorage, useClass: NbTokenLocalStorage }</title>
<ellipse fill="#fdb462" stroke="#000000" cx="303" cy="-104" rx="279.2134" ry="18"/>
<text text-anchor="middle" x="303" y="-99.8" font-family="Times,serif" font-size="14.00" fill="#000000">{ provide: NbTokenLocalStorage, useClass: NbTokenLocalStorage }</text>
</g>
<!-- { provide: NbTokenLocalStorage, useClass: NbTokenLocalStorage }&#45;&gt;AuthModule -->
<g id="edge13" class="edge">
<title>{ provide: NbTokenLocalStorage, useClass: NbTokenLocalStorage }&#45;&gt;AuthModule</title>
<path fill="none" stroke="#000000" d="M303,-122.2479C303,-145.0179 303,-181 303,-181 303,-181 1842.1491,-181 1842.1491,-181"/>
<polygon fill="#000000" stroke="#000000" points="1842.1491,-184.5001 1852.1491,-181 1842.1491,-177.5001 1842.1491,-184.5001"/>
</g>
</g>
</svg>
