<?xml version="1.0" encoding="UTF-8" standalone="no"?>
<!DOCTYPE svg PUBLIC "-//W3C//DTD SVG 1.1//EN"
 "http://www.w3.org/Graphics/SVG/1.1/DTD/svg11.dtd">
<!-- Generated by graphviz version 2.40.1 (20161225.0304)
 -->
<!-- Title: dependencies Pages: 1 -->
<svg width="763pt" height="211pt"
 viewBox="0.00 0.00 763.00 211.00" xmlns="http://www.w3.org/2000/svg" xmlns:xlink="http://www.w3.org/1999/xlink">
<g id="graph0" class="graph" transform="scale(1 1) rotate(0) translate(4 207)">
<title>dependencies</title>
<polygon fill="#ffffff" stroke="transparent" points="-4,4 -4,-207 759,-207 759,4 -4,4"/>
<text text-anchor="start" x="356.5091" y="-42.4" font-family="sans-serif" font-weight="bold" font-size="14.00" fill="#000000">Legend</text>
<polygon fill="#ffffb3" stroke="transparent" points="143.5,-10 143.5,-30 163.5,-30 163.5,-10 143.5,-10"/>
<text text-anchor="start" x="167.129" y="-15.4" font-family="sans-serif" font-size="14.00" fill="#000000"> &#160;Declarations</text>
<polygon fill="#8dd3c7" stroke="transparent" points="256.5,-10 256.5,-30 276.5,-30 276.5,-10 256.5,-10"/>
<text text-anchor="start" x="280.2251" y="-15.4" font-family="sans-serif" font-size="14.00" fill="#000000"> &#160;Module</text>
<polygon fill="#80b1d3" stroke="transparent" points="342.5,-10 342.5,-30 362.5,-30 362.5,-10 342.5,-10"/>
<text text-anchor="start" x="366.2812" y="-15.4" font-family="sans-serif" font-size="14.00" fill="#000000"> &#160;Bootstrap</text>
<polygon fill="#fdb462" stroke="transparent" points="439.5,-10 439.5,-30 459.5,-30 459.5,-10 439.5,-10"/>
<text text-anchor="start" x="463.1732" y="-15.4" font-family="sans-serif" font-size="14.00" fill="#000000"> &#160;Providers</text>
<polygon fill="#fb8072" stroke="transparent" points="535.5,-10 535.5,-30 555.5,-30 555.5,-10 535.5,-10"/>
<text text-anchor="start" x="559.2258" y="-15.4" font-family="sans-serif" font-size="14.00" fill="#000000"> &#160;Exports</text>
<g id="clust1" class="cluster">
<title>cluster_UsersModule</title>
<polygon fill="none" stroke="#000000" stroke-dasharray="1,5" points="8,-70 8,-195 747,-195 747,-70 8,-70"/>
</g>
<g id="clust2" class="cluster">
<title>cluster_UsersModule_declarations</title>
<polygon fill="none" stroke="#000000" points="437,-78 437,-130 739,-130 739,-78 437,-78"/>
</g>
<g id="clust5" class="cluster">
<title>cluster_UsersModule_imports</title>
<polygon fill="none" stroke="#000000" points="16,-78 16,-130 429,-130 429,-78 16,-78"/>
</g>
<!-- LeaderboardComponent -->
<g id="node1" class="node">
<title>LeaderboardComponent</title>
<polygon fill="#ffffb3" stroke="#000000" points="731.0646,-122 578.9354,-122 578.9354,-86 731.0646,-86 731.0646,-122"/>
<text text-anchor="middle" x="655" y="-99.8" font-family="Times,serif" font-size="14.00" fill="#000000">LeaderboardComponent</text>
</g>
<!-- UsersModule -->
<g id="node3" class="node">
<title>UsersModule</title>
<polygon fill="#8dd3c7" stroke="#000000" points="417.9218,-187 414.9218,-191 393.9218,-191 390.9218,-187 326.0782,-187 326.0782,-151 417.9218,-151 417.9218,-187"/>
<text text-anchor="middle" x="372" y="-164.8" font-family="Times,serif" font-size="14.00" fill="#000000">UsersModule</text>
</g>
<!-- LeaderboardComponent&#45;&gt;UsersModule -->
<g id="edge1" class="edge">
<title>LeaderboardComponent&#45;&gt;UsersModule</title>
<path fill="none" stroke="#000000" d="M655,-122.2843C655,-143.3211 655,-175 655,-175 655,-175 427.7834,-175 427.7834,-175"/>
<polygon fill="#000000" stroke="#000000" points="427.7834,-171.5001 417.7834,-175 427.7833,-178.5001 427.7834,-171.5001"/>
</g>
<!-- BoardComponent -->
<g id="node2" class="node">
<title>BoardComponent</title>
<polygon fill="#ffffb3" stroke="#000000" points="560.5451,-122 445.4549,-122 445.4549,-86 560.5451,-86 560.5451,-122"/>
<text text-anchor="middle" x="503" y="-99.8" font-family="Times,serif" font-size="14.00" fill="#000000">BoardComponent</text>
</g>
<!-- BoardComponent&#45;&gt;UsersModule -->
<g id="edge2" class="edge">
<title>BoardComponent&#45;&gt;UsersModule</title>
<path fill="none" stroke="#000000" d="M503,-122.0225C503,-139.3734 503,-163 503,-163 503,-163 427.8174,-163 427.8174,-163"/>
<polygon fill="#000000" stroke="#000000" points="427.8175,-159.5001 417.8174,-163 427.8174,-166.5001 427.8175,-159.5001"/>
</g>
<!-- ThemeModule -->
<g id="node4" class="node">
<title>ThemeModule</title>
<polygon fill="#8dd3c7" stroke="#000000" points="421.4231,-122 418.4231,-126 397.4231,-126 394.4231,-122 322.5769,-122 322.5769,-86 421.4231,-86 421.4231,-122"/>
<text text-anchor="middle" x="372" y="-99.8" font-family="Times,serif" font-size="14.00" fill="#000000">ThemeModule</text>
</g>
<!-- ThemeModule&#45;&gt;UsersModule -->
<g id="edge3" class="edge">
<title>ThemeModule&#45;&gt;UsersModule</title>
<path fill="none" stroke="#000000" d="M372,-122.1061C372,-122.1061 372,-140.991 372,-140.991"/>
<polygon fill="#000000" stroke="#000000" points="368.5001,-140.9909 372,-150.991 375.5001,-140.991 368.5001,-140.9909"/>
</g>
<!-- AuthModule -->
<g id="node5" class="node">
<title>AuthModule</title>
<polygon fill="#8dd3c7" stroke="#000000" points="304.5482,-122 301.5482,-126 280.5482,-126 277.5482,-122 217.4518,-122 217.4518,-86 304.5482,-86 304.5482,-122"/>
<text text-anchor="middle" x="261" y="-99.8" font-family="Times,serif" font-size="14.00" fill="#000000">AuthModule</text>
</g>
<!-- AuthModule&#45;&gt;UsersModule -->
<g id="edge4" class="edge">
<title>AuthModule&#45;&gt;UsersModule</title>
<path fill="none" stroke="#000000" d="M261,-122.0225C261,-139.3734 261,-163 261,-163 261,-163 316.2112,-163 316.2112,-163"/>
<polygon fill="#000000" stroke="#000000" points="316.2112,-166.5001 326.2112,-163 316.2112,-159.5001 316.2112,-166.5001"/>
</g>
<!-- LeaderboardRoutingModule -->
<g id="node6" class="node">
<title>LeaderboardRoutingModule</title>
<polygon fill="#8dd3c7" stroke="#000000" points="199.9003,-122 196.9003,-126 175.9003,-126 172.9003,-122 24.0997,-122 24.0997,-86 199.9003,-86 199.9003,-122"/>
<text text-anchor="middle" x="112" y="-99.8" font-family="Times,serif" font-size="14.00" fill="#000000">LeaderboardRoutingModule</text>
</g>
<!-- LeaderboardRoutingModule&#45;&gt;UsersModule -->
<g id="edge5" class="edge">
<title>LeaderboardRoutingModule&#45;&gt;UsersModule</title>
<path fill="none" stroke="#000000" d="M112,-122.2843C112,-143.3211 112,-175 112,-175 112,-175 316.1157,-175 316.1157,-175"/>
<polygon fill="#000000" stroke="#000000" points="316.1158,-178.5001 326.1157,-175 316.1157,-171.5001 316.1158,-178.5001"/>
</g>
</g>
</svg>
