<?xml version="1.0" encoding="UTF-8" standalone="no"?>
<!DOCTYPE svg PUBLIC "-//W3C//DTD SVG 1.1//EN"
 "http://www.w3.org/Graphics/SVG/1.1/DTD/svg11.dtd">
<!-- Generated by graphviz version 2.40.1 (20161225.0304)
 -->
<!-- Title: dependencies Pages: 1 -->
<svg width="1378pt" height="211pt"
 viewBox="0.00 0.00 1378.00 211.00" xmlns="http://www.w3.org/2000/svg" xmlns:xlink="http://www.w3.org/1999/xlink">
<g id="graph0" class="graph" transform="scale(1 1) rotate(0) translate(4 207)">
<title>dependencies</title>
<polygon fill="#ffffff" stroke="transparent" points="-4,4 -4,-207 1374,-207 1374,4 -4,4"/>
<text text-anchor="start" x="664.0091" y="-42.4" font-family="sans-serif" font-weight="bold" font-size="14.00" fill="#000000">Legend</text>
<polygon fill="#ffffb3" stroke="transparent" points="451,-10 451,-30 471,-30 471,-10 451,-10"/>
<text text-anchor="start" x="474.629" y="-15.4" font-family="sans-serif" font-size="14.00" fill="#000000"> &#160;Declarations</text>
<polygon fill="#8dd3c7" stroke="transparent" points="564,-10 564,-30 584,-30 584,-10 564,-10"/>
<text text-anchor="start" x="587.7251" y="-15.4" font-family="sans-serif" font-size="14.00" fill="#000000"> &#160;Module</text>
<polygon fill="#80b1d3" stroke="transparent" points="650,-10 650,-30 670,-30 670,-10 650,-10"/>
<text text-anchor="start" x="673.7812" y="-15.4" font-family="sans-serif" font-size="14.00" fill="#000000"> &#160;Bootstrap</text>
<polygon fill="#fdb462" stroke="transparent" points="747,-10 747,-30 767,-30 767,-10 747,-10"/>
<text text-anchor="start" x="770.6732" y="-15.4" font-family="sans-serif" font-size="14.00" fill="#000000"> &#160;Providers</text>
<polygon fill="#fb8072" stroke="transparent" points="843,-10 843,-30 863,-30 863,-10 843,-10"/>
<text text-anchor="start" x="866.7258" y="-15.4" font-family="sans-serif" font-size="14.00" fill="#000000"> &#160;Exports</text>
<g id="clust1" class="cluster">
<title>cluster_UsersModule</title>
<polygon fill="none" stroke="#000000" stroke-dasharray="1,5" points="8,-70 8,-195 1362,-195 1362,-70 8,-70"/>
</g>
<g id="clust2" class="cluster">
<title>cluster_UsersModule_declarations</title>
<polygon fill="none" stroke="#000000" points="1052,-78 1052,-130 1354,-130 1354,-78 1052,-78"/>
</g>
<g id="clust5" class="cluster">
<title>cluster_UsersModule_imports</title>
<polygon fill="none" stroke="#000000" points="16,-78 16,-130 1044,-130 1044,-78 16,-78"/>
</g>
<!-- LeaderboardComponent -->
<g id="node1" class="node">
<title>LeaderboardComponent</title>
<polygon fill="#ffffb3" stroke="#000000" points="1346.0646,-122 1193.9354,-122 1193.9354,-86 1346.0646,-86 1346.0646,-122"/>
<text text-anchor="middle" x="1270" y="-99.8" font-family="Times,serif" font-size="14.00" fill="#000000">LeaderboardComponent</text>
</g>
<!-- UsersModule -->
<g id="node3" class="node">
<title>UsersModule</title>
<polygon fill="#8dd3c7" stroke="#000000" points="785.9218,-187 782.9218,-191 761.9218,-191 758.9218,-187 694.0782,-187 694.0782,-151 785.9218,-151 785.9218,-187"/>
<text text-anchor="middle" x="740" y="-164.8" font-family="Times,serif" font-size="14.00" fill="#000000">UsersModule</text>
</g>
<!-- LeaderboardComponent&#45;&gt;UsersModule -->
<g id="edge1" class="edge">
<title>LeaderboardComponent&#45;&gt;UsersModule</title>
<path fill="none" stroke="#000000" d="M1270,-122.0109C1270,-144.4852 1270,-180 1270,-180 1270,-180 796.1069,-180 796.1069,-180"/>
<polygon fill="#000000" stroke="#000000" points="796.1069,-176.5001 786.1069,-180 796.1068,-183.5001 796.1069,-176.5001"/>
</g>
<!-- BoardComponent -->
<g id="node2" class="node">
<title>BoardComponent</title>
<polygon fill="#ffffb3" stroke="#000000" points="1175.5451,-122 1060.4549,-122 1060.4549,-86 1175.5451,-86 1175.5451,-122"/>
<text text-anchor="middle" x="1118" y="-99.8" font-family="Times,serif" font-size="14.00" fill="#000000">BoardComponent</text>
</g>
<!-- BoardComponent&#45;&gt;UsersModule -->
<g id="edge2" class="edge">
<title>BoardComponent&#45;&gt;UsersModule</title>
<path fill="none" stroke="#000000" d="M1118,-122.1289C1118,-142.5724 1118,-173 1118,-173 1118,-173 795.9723,-173 795.9723,-173"/>
<polygon fill="#000000" stroke="#000000" points="795.9724,-169.5001 785.9723,-173 795.9723,-176.5001 795.9724,-169.5001"/>
</g>
<!-- ThemeModule -->
<g id="node4" class="node">
<title>ThemeModule</title>
<polygon fill="#8dd3c7" stroke="#000000" points="1036.4231,-122 1033.4231,-126 1012.4231,-126 1009.4231,-122 937.5769,-122 937.5769,-86 1036.4231,-86 1036.4231,-122"/>
<text text-anchor="middle" x="987" y="-99.8" font-family="Times,serif" font-size="14.00" fill="#000000">ThemeModule</text>
</g>
<!-- ThemeModule&#45;&gt;UsersModule -->
<g id="edge3" class="edge">
<title>ThemeModule&#45;&gt;UsersModule</title>
<path fill="none" stroke="#000000" d="M987,-122.2667C987,-140.5552 987,-166 987,-166 987,-166 795.8799,-166 795.8799,-166"/>
<polygon fill="#000000" stroke="#000000" points="795.88,-162.5001 785.8799,-166 795.8799,-169.5001 795.88,-162.5001"/>
</g>
<!-- AuthModule -->
<g id="node5" class="node">
<title>AuthModule</title>
<polygon fill="#8dd3c7" stroke="#000000" points="919.5482,-122 916.5482,-126 895.5482,-126 892.5482,-122 832.4518,-122 832.4518,-86 919.5482,-86 919.5482,-122"/>
<text text-anchor="middle" x="876" y="-99.8" font-family="Times,serif" font-size="14.00" fill="#000000">AuthModule</text>
</g>
<!-- AuthModule&#45;&gt;UsersModule -->
<g id="edge4" class="edge">
<title>AuthModule&#45;&gt;UsersModule</title>
<path fill="none" stroke="#000000" d="M876,-122.0091C876,-138.0494 876,-159 876,-159 876,-159 796.0434,-159 796.0434,-159"/>
<polygon fill="#000000" stroke="#000000" points="796.0434,-155.5001 786.0434,-159 796.0434,-162.5001 796.0434,-155.5001"/>
</g>
<!-- Ng2SmartTableModule -->
<g id="node6" class="node">
<title>Ng2SmartTableModule</title>
<polygon fill="#8dd3c7" stroke="#000000" points="814.4678,-122 811.4678,-126 790.4678,-126 787.4678,-122 665.5322,-122 665.5322,-86 814.4678,-86 814.4678,-122"/>
<text text-anchor="middle" x="740" y="-99.8" font-family="Times,serif" font-size="14.00" fill="#000000">Ng2SmartTableModule</text>
</g>
<!-- Ng2SmartTableModule&#45;&gt;UsersModule -->
<g id="edge5" class="edge">
<title>Ng2SmartTableModule&#45;&gt;UsersModule</title>
<path fill="none" stroke="#000000" d="M740,-122.1061C740,-122.1061 740,-140.991 740,-140.991"/>
<polygon fill="#000000" stroke="#000000" points="736.5001,-140.9909 740,-150.991 743.5001,-140.991 736.5001,-140.9909"/>
</g>
<!-- LeaderboardRoutingModule -->
<g id="node7" class="node">
<title>LeaderboardRoutingModule</title>
<polygon fill="#8dd3c7" stroke="#000000" points="647.9003,-122 644.9003,-126 623.9003,-126 620.9003,-122 472.0997,-122 472.0997,-86 647.9003,-86 647.9003,-122"/>
<text text-anchor="middle" x="560" y="-99.8" font-family="Times,serif" font-size="14.00" fill="#000000">LeaderboardRoutingModule</text>
</g>
<!-- LeaderboardRoutingModule&#45;&gt;UsersModule -->
<g id="edge6" class="edge">
<title>LeaderboardRoutingModule&#45;&gt;UsersModule</title>
<path fill="none" stroke="#000000" d="M560,-122.0091C560,-138.0494 560,-159 560,-159 560,-159 684.1127,-159 684.1127,-159"/>
<polygon fill="#000000" stroke="#000000" points="684.1127,-162.5001 694.1127,-159 684.1126,-155.5001 684.1127,-162.5001"/>
</g>
<!-- ComponentsModule -->
<g id="node8" class="node">
<title>ComponentsModule</title>
<polygon fill="#8dd3c7" stroke="#000000" points="454.3272,-122 451.3272,-126 430.3272,-126 427.3272,-122 323.6728,-122 323.6728,-86 454.3272,-86 454.3272,-122"/>
<text text-anchor="middle" x="389" y="-99.8" font-family="Times,serif" font-size="14.00" fill="#000000">ComponentsModule</text>
</g>
<!-- ComponentsModule&#45;&gt;UsersModule -->
<g id="edge7" class="edge">
<title>ComponentsModule&#45;&gt;UsersModule</title>
<path fill="none" stroke="#000000" d="M389,-122.2667C389,-140.5552 389,-166 389,-166 389,-166 684.1129,-166 684.1129,-166"/>
<polygon fill="#000000" stroke="#000000" points="684.1129,-169.5001 694.1129,-166 684.1128,-162.5001 684.1129,-169.5001"/>
</g>
<!-- ReactiveFormsModule -->
<g id="node9" class="node">
<title>ReactiveFormsModule</title>
<polygon fill="#8dd3c7" stroke="#000000" points="306.3047,-122 303.3047,-126 282.3047,-126 279.3047,-122 161.6953,-122 161.6953,-86 306.3047,-86 306.3047,-122"/>
<text text-anchor="middle" x="234" y="-99.8" font-family="Times,serif" font-size="14.00" fill="#000000">ReactiveFormsModule</text>
</g>
<!-- ReactiveFormsModule&#45;&gt;UsersModule -->
<g id="edge8" class="edge">
<title>ReactiveFormsModule&#45;&gt;UsersModule</title>
<path fill="none" stroke="#000000" d="M234,-122.1289C234,-142.5724 234,-173 234,-173 234,-173 684.2034,-173 684.2034,-173"/>
<polygon fill="#000000" stroke="#000000" points="684.2035,-176.5001 694.2034,-173 684.2034,-169.5001 684.2035,-176.5001"/>
</g>
<!-- ...NB_MODULES -->
<g id="node10" class="node">
<title>...NB_MODULES</title>
<polygon fill="#8dd3c7" stroke="#000000" points="144.0961,-122 141.0961,-126 120.0961,-126 117.0961,-122 23.9039,-122 23.9039,-86 144.0961,-86 144.0961,-122"/>
<text text-anchor="middle" x="84" y="-99.8" font-family="Times,serif" font-size="14.00" fill="#000000">...NB_MODULES</text>
</g>
<!-- ...NB_MODULES&#45;&gt;UsersModule -->
<g id="edge9" class="edge">
<title>...NB_MODULES&#45;&gt;UsersModule</title>
<path fill="none" stroke="#000000" d="M84,-122.0109C84,-144.4852 84,-180 84,-180 84,-180 684.1321,-180 684.1321,-180"/>
<polygon fill="#000000" stroke="#000000" points="684.1321,-183.5001 694.1321,-180 684.132,-176.5001 684.1321,-183.5001"/>
</g>
</g>
</svg>
