<?xml version="1.0" encoding="UTF-8" standalone="no"?>
<!DOCTYPE svg PUBLIC "-//W3C//DTD SVG 1.1//EN"
 "http://www.w3.org/Graphics/SVG/1.1/DTD/svg11.dtd">
<!-- Generated by graphviz version 2.40.1 (20161225.0304)
 -->
<!-- Title: dependencies Pages: 1 -->
<svg width="3738pt" height="284pt"
 viewBox="0.00 0.00 3738.00 284.00" xmlns="http://www.w3.org/2000/svg" xmlns:xlink="http://www.w3.org/1999/xlink">
<g id="graph0" class="graph" transform="scale(1 1) rotate(0) translate(4 280)">
<title>dependencies</title>
<polygon fill="#ffffff" stroke="transparent" points="-4,4 -4,-280 3734,-280 3734,4 -4,4"/>
<text text-anchor="start" x="1844.0091" y="-42.4" font-family="sans-serif" font-weight="bold" font-size="14.00" fill="#000000">Legend</text>
<polygon fill="#ffffb3" stroke="transparent" points="1631,-10 1631,-30 1651,-30 1651,-10 1631,-10"/>
<text text-anchor="start" x="1654.629" y="-15.4" font-family="sans-serif" font-size="14.00" fill="#000000"> &#160;Declarations</text>
<polygon fill="#8dd3c7" stroke="transparent" points="1744,-10 1744,-30 1764,-30 1764,-10 1744,-10"/>
<text text-anchor="start" x="1767.7251" y="-15.4" font-family="sans-serif" font-size="14.00" fill="#000000"> &#160;Module</text>
<polygon fill="#80b1d3" stroke="transparent" points="1830,-10 1830,-30 1850,-30 1850,-10 1830,-10"/>
<text text-anchor="start" x="1853.7812" y="-15.4" font-family="sans-serif" font-size="14.00" fill="#000000"> &#160;Bootstrap</text>
<polygon fill="#fdb462" stroke="transparent" points="1927,-10 1927,-30 1947,-30 1947,-10 1927,-10"/>
<text text-anchor="start" x="1950.6732" y="-15.4" font-family="sans-serif" font-size="14.00" fill="#000000"> &#160;Providers</text>
<polygon fill="#fb8072" stroke="transparent" points="2023,-10 2023,-30 2043,-30 2043,-10 2023,-10"/>
<text text-anchor="start" x="2046.7258" y="-15.4" font-family="sans-serif" font-size="14.00" fill="#000000"> &#160;Exports</text>
<g id="clust1" class="cluster">
<title>cluster_AppModule</title>
<polygon fill="none" stroke="#000000" stroke-dasharray="1,5" points="8,-70 8,-268 3722,-268 3722,-70 8,-70"/>
</g>
<g id="clust2" class="cluster">
<title>cluster_AppModule_declarations</title>
<polygon fill="none" stroke="#000000" points="3592,-78 3592,-130 3714,-130 3714,-78 3592,-78"/>
</g>
<g id="clust4" class="cluster">
<title>cluster_AppModule_imports</title>
<polygon fill="none" stroke="#000000" points="674,-78 674,-130 3584,-130 3584,-78 674,-78"/>
</g>
<g id="clust6" class="cluster">
<title>cluster_AppModule_bootstrap</title>
<polygon fill="none" stroke="#000000" points="2195,-208 2195,-260 2319,-260 2319,-208 2195,-208"/>
</g>
<g id="clust7" class="cluster">
<title>cluster_AppModule_providers</title>
<polygon fill="none" stroke="#000000" points="16,-78 16,-130 666,-130 666,-78 16,-78"/>
</g>
<!-- AppComponent -->
<g id="node1" class="node">
<title>AppComponent</title>
<polygon fill="#ffffb3" stroke="#000000" points="3705.9399,-122 3600.0601,-122 3600.0601,-86 3705.9399,-86 3705.9399,-122"/>
<text text-anchor="middle" x="3653" y="-99.8" font-family="Times,serif" font-size="14.00" fill="#000000">AppComponent</text>
</g>
<!-- AppModule -->
<g id="node2" class="node">
<title>AppModule</title>
<polygon fill="#8dd3c7" stroke="#000000" points="2298.6571,-187 2295.6571,-191 2274.6571,-191 2271.6571,-187 2215.3429,-187 2215.3429,-151 2298.6571,-151 2298.6571,-187"/>
<text text-anchor="middle" x="2257" y="-164.8" font-family="Times,serif" font-size="14.00" fill="#000000">AppModule</text>
</g>
<!-- AppComponent&#45;&gt;AppModule -->
<g id="edge1" class="edge">
<title>AppComponent&#45;&gt;AppModule</title>
<path fill="none" stroke="#000000" d="M3653,-122.1532C3653,-145.7566 3653,-184 3653,-184 3653,-184 2308.7795,-184 2308.7795,-184"/>
<polygon fill="#000000" stroke="#000000" points="2308.7795,-180.5001 2298.7795,-184 2308.7795,-187.5001 2308.7795,-180.5001"/>
</g>
<!-- AppComponent  -->
<g id="node20" class="node">
<title>AppComponent </title>
<polygon fill="#80b1d3" stroke="#000000" points="2311.439,-252 2202.561,-252 2202.561,-216 2311.439,-216 2311.439,-252"/>
<text text-anchor="middle" x="2257" y="-229.8" font-family="Times,serif" font-size="14.00" fill="#000000">AppComponent </text>
</g>
<!-- AppModule&#45;&gt;AppComponent  -->
<g id="edge19" class="edge">
<title>AppModule&#45;&gt;AppComponent </title>
<path fill="none" stroke="#000000" stroke-dasharray="1,5" d="M2257,-187.1061C2257,-187.1061 2257,-205.991 2257,-205.991"/>
<polygon fill="#000000" stroke="#000000" points="2253.5001,-205.9909 2257,-215.991 2260.5001,-205.991 2253.5001,-205.9909"/>
</g>
<!-- BrowserModule -->
<g id="node3" class="node">
<title>BrowserModule</title>
<polygon fill="#8dd3c7" stroke="#000000" points="3576.4734,-122 3573.4734,-126 3552.4734,-126 3549.4734,-122 3469.5266,-122 3469.5266,-86 3576.4734,-86 3576.4734,-122"/>
<text text-anchor="middle" x="3523" y="-99.8" font-family="Times,serif" font-size="14.00" fill="#000000">BrowserModule</text>
</g>
<!-- BrowserModule&#45;&gt;AppModule -->
<g id="edge2" class="edge">
<title>BrowserModule&#45;&gt;AppModule</title>
<path fill="none" stroke="#000000" d="M3523,-122.0109C3523,-144.4852 3523,-180 3523,-180 3523,-180 2308.7615,-180 2308.7615,-180"/>
<polygon fill="#000000" stroke="#000000" points="2308.7615,-176.5001 2298.7615,-180 2308.7615,-183.5001 2308.7615,-176.5001"/>
</g>
<!-- BrowserAnimationsModule -->
<g id="node4" class="node">
<title>BrowserAnimationsModule</title>
<polygon fill="#8dd3c7" stroke="#000000" points="3451.3019,-122 3448.3019,-126 3427.3019,-126 3424.3019,-122 3278.6981,-122 3278.6981,-86 3451.3019,-86 3451.3019,-122"/>
<text text-anchor="middle" x="3365" y="-99.8" font-family="Times,serif" font-size="14.00" fill="#000000">BrowserAnimationsModule</text>
</g>
<!-- BrowserAnimationsModule&#45;&gt;AppModule -->
<g id="edge3" class="edge">
<title>BrowserAnimationsModule&#45;&gt;AppModule</title>
<path fill="none" stroke="#000000" d="M3365,-122.0449C3365,-143.6623 3365,-177 3365,-177 3365,-177 2308.7467,-177 2308.7467,-177"/>
<polygon fill="#000000" stroke="#000000" points="2308.7467,-173.5001 2298.7467,-177 2308.7467,-180.5001 2308.7467,-173.5001"/>
</g>
<!-- HttpClientModule -->
<g id="node5" class="node">
<title>HttpClientModule</title>
<polygon fill="#8dd3c7" stroke="#000000" points="3261.1611,-122 3258.1611,-126 3237.1611,-126 3234.1611,-122 3142.8389,-122 3142.8389,-86 3261.1611,-86 3261.1611,-122"/>
<text text-anchor="middle" x="3202" y="-99.8" font-family="Times,serif" font-size="14.00" fill="#000000">HttpClientModule</text>
</g>
<!-- HttpClientModule&#45;&gt;AppModule -->
<g id="edge4" class="edge">
<title>HttpClientModule&#45;&gt;AppModule</title>
<path fill="none" stroke="#000000" d="M3202,-122.1289C3202,-142.5724 3202,-173 3202,-173 3202,-173 2308.8248,-173 2308.8248,-173"/>
<polygon fill="#000000" stroke="#000000" points="2308.8248,-169.5001 2298.8248,-173 2308.8248,-176.5001 2308.8248,-169.5001"/>
</g>
<!-- AppRoutingModule -->
<g id="node6" class="node">
<title>AppRoutingModule</title>
<polygon fill="#8dd3c7" stroke="#000000" points="3124.2744,-122 3121.2744,-126 3100.2744,-126 3097.2744,-122 2995.7256,-122 2995.7256,-86 3124.2744,-86 3124.2744,-122"/>
<text text-anchor="middle" x="3060" y="-99.8" font-family="Times,serif" font-size="14.00" fill="#000000">AppRoutingModule</text>
</g>
<!-- AppRoutingModule&#45;&gt;AppModule -->
<g id="edge5" class="edge">
<title>AppRoutingModule&#45;&gt;AppModule</title>
<path fill="none" stroke="#000000" d="M3060,-122.1061C3060,-141.3391 3060,-169 3060,-169 3060,-169 2308.7616,-169 2308.7616,-169"/>
<polygon fill="#000000" stroke="#000000" points="2308.7616,-165.5001 2298.7616,-169 2308.7616,-172.5001 2308.7616,-165.5001"/>
</g>
<!-- StaticModule -->
<g id="node7" class="node">
<title>StaticModule</title>
<polygon fill="#8dd3c7" stroke="#000000" points="2977.9344,-122 2974.9344,-126 2953.9344,-126 2950.9344,-122 2886.0656,-122 2886.0656,-86 2977.9344,-86 2977.9344,-122"/>
<text text-anchor="middle" x="2932" y="-99.8" font-family="Times,serif" font-size="14.00" fill="#000000">StaticModule</text>
</g>
<!-- StaticModule&#45;&gt;AppModule -->
<g id="edge6" class="edge">
<title>StaticModule&#45;&gt;AppModule</title>
<path fill="none" stroke="#000000" d="M2932,-122.2667C2932,-140.5552 2932,-166 2932,-166 2932,-166 2308.7149,-166 2308.7149,-166"/>
<polygon fill="#000000" stroke="#000000" points="2308.7149,-162.5001 2298.7149,-166 2308.7148,-169.5001 2308.7149,-162.5001"/>
</g>
<!-- ThemeModule.forRoot() -->
<g id="node8" class="node">
<title>ThemeModule.forRoot()</title>
<polygon fill="#8dd3c7" stroke="#000000" points="2868.2919,-122 2865.2919,-126 2844.2919,-126 2841.2919,-122 2713.7081,-122 2713.7081,-86 2868.2919,-86 2868.2919,-122"/>
<text text-anchor="middle" x="2791" y="-99.8" font-family="Times,serif" font-size="14.00" fill="#000000">ThemeModule.forRoot()</text>
</g>
<!-- ThemeModule.forRoot()&#45;&gt;AppModule -->
<g id="edge7" class="edge">
<title>ThemeModule.forRoot()&#45;&gt;AppModule</title>
<path fill="none" stroke="#000000" d="M2791,-122.0336C2791,-139.0597 2791,-162 2791,-162 2791,-162 2308.9021,-162 2308.9021,-162"/>
<polygon fill="#000000" stroke="#000000" points="2308.9021,-158.5001 2298.9021,-162 2308.902,-165.5001 2308.9021,-158.5001"/>
</g>
<!-- AuthModule.forRoot() -->
<g id="node9" class="node">
<title>AuthModule.forRoot()</title>
<polygon fill="#8dd3c7" stroke="#000000" points="2695.9166,-122 2692.9166,-126 2671.9166,-126 2668.9166,-122 2552.0834,-122 2552.0834,-86 2695.9166,-86 2695.9166,-122"/>
<text text-anchor="middle" x="2624" y="-99.8" font-family="Times,serif" font-size="14.00" fill="#000000">AuthModule.forRoot()</text>
</g>
<!-- AuthModule.forRoot()&#45;&gt;AppModule -->
<g id="edge8" class="edge">
<title>AuthModule.forRoot()&#45;&gt;AppModule</title>
<path fill="none" stroke="#000000" d="M2624,-122.0091C2624,-138.0494 2624,-159 2624,-159 2624,-159 2308.7423,-159 2308.7423,-159"/>
<polygon fill="#000000" stroke="#000000" points="2308.7423,-155.5001 2298.7423,-159 2308.7422,-162.5001 2308.7423,-155.5001"/>
</g>
<!-- NbSidebarModule.forRoot() -->
<g id="node10" class="node">
<title>NbSidebarModule.forRoot()</title>
<polygon fill="#8dd3c7" stroke="#000000" points="2533.7891,-122 2530.7891,-126 2509.7891,-126 2506.7891,-122 2358.2109,-122 2358.2109,-86 2533.7891,-86 2533.7891,-122"/>
<text text-anchor="middle" x="2446" y="-99.8" font-family="Times,serif" font-size="14.00" fill="#000000">NbSidebarModule.forRoot()</text>
</g>
<!-- NbSidebarModule.forRoot()&#45;&gt;AppModule -->
<g id="edge9" class="edge">
<title>NbSidebarModule.forRoot()&#45;&gt;AppModule</title>
<path fill="none" stroke="#000000" d="M2446,-122.1243C2446,-136.7832 2446,-155 2446,-155 2446,-155 2308.9452,-155 2308.9452,-155"/>
<polygon fill="#000000" stroke="#000000" points="2308.9453,-151.5001 2298.9452,-155 2308.9452,-158.5001 2308.9453,-151.5001"/>
</g>
<!-- NbMenuModule.forRoot() -->
<g id="node11" class="node">
<title>NbMenuModule.forRoot()</title>
<polygon fill="#8dd3c7" stroke="#000000" points="2339.6855,-122 2336.6855,-126 2315.6855,-126 2312.6855,-122 2174.3145,-122 2174.3145,-86 2339.6855,-86 2339.6855,-122"/>
<text text-anchor="middle" x="2257" y="-99.8" font-family="Times,serif" font-size="14.00" fill="#000000">NbMenuModule.forRoot()</text>
</g>
<!-- NbMenuModule.forRoot()&#45;&gt;AppModule -->
<g id="edge10" class="edge">
<title>NbMenuModule.forRoot()&#45;&gt;AppModule</title>
<path fill="none" stroke="#000000" d="M2257,-122.1061C2257,-122.1061 2257,-140.991 2257,-140.991"/>
<polygon fill="#000000" stroke="#000000" points="2253.5001,-140.9909 2257,-150.991 2260.5001,-140.991 2253.5001,-140.9909"/>
</g>
<!-- NbDatepickerModule.forRoot() -->
<g id="node12" class="node">
<title>NbDatepickerModule.forRoot()</title>
<polygon fill="#8dd3c7" stroke="#000000" points="2156.4333,-122 2153.4333,-126 2132.4333,-126 2129.4333,-122 1961.5667,-122 1961.5667,-86 2156.4333,-86 2156.4333,-122"/>
<text text-anchor="middle" x="2059" y="-99.8" font-family="Times,serif" font-size="14.00" fill="#000000">NbDatepickerModule.forRoot()</text>
</g>
<!-- NbDatepickerModule.forRoot()&#45;&gt;AppModule -->
<g id="edge11" class="edge">
<title>NbDatepickerModule.forRoot()&#45;&gt;AppModule</title>
<path fill="none" stroke="#000000" d="M2059,-122.1243C2059,-136.7832 2059,-155 2059,-155 2059,-155 2205.0093,-155 2205.0093,-155"/>
<polygon fill="#000000" stroke="#000000" points="2205.0093,-158.5001 2215.0093,-155 2205.0093,-151.5001 2205.0093,-158.5001"/>
</g>
<!-- NbDialogModule.forRoot() -->
<g id="node13" class="node">
<title>NbDialogModule.forRoot()</title>
<polygon fill="#8dd3c7" stroke="#000000" points="1943.6284,-122 1940.6284,-126 1919.6284,-126 1916.6284,-122 1772.3716,-122 1772.3716,-86 1943.6284,-86 1943.6284,-122"/>
<text text-anchor="middle" x="1858" y="-99.8" font-family="Times,serif" font-size="14.00" fill="#000000">NbDialogModule.forRoot()</text>
</g>
<!-- NbDialogModule.forRoot()&#45;&gt;AppModule -->
<g id="edge12" class="edge">
<title>NbDialogModule.forRoot()&#45;&gt;AppModule</title>
<path fill="none" stroke="#000000" d="M1858,-122.0091C1858,-138.0494 1858,-159 1858,-159 1858,-159 2205.0541,-159 2205.0541,-159"/>
<polygon fill="#000000" stroke="#000000" points="2205.0542,-162.5001 2215.0541,-159 2205.0541,-155.5001 2205.0542,-162.5001"/>
</g>
<!-- NbWindowModule.forRoot() -->
<g id="node14" class="node">
<title>NbWindowModule.forRoot()</title>
<polygon fill="#8dd3c7" stroke="#000000" points="1754.738,-122 1751.738,-126 1730.738,-126 1727.738,-122 1573.262,-122 1573.262,-86 1754.738,-86 1754.738,-122"/>
<text text-anchor="middle" x="1664" y="-99.8" font-family="Times,serif" font-size="14.00" fill="#000000">NbWindowModule.forRoot()</text>
</g>
<!-- NbWindowModule.forRoot()&#45;&gt;AppModule -->
<g id="edge13" class="edge">
<title>NbWindowModule.forRoot()&#45;&gt;AppModule</title>
<path fill="none" stroke="#000000" d="M1664,-122.0336C1664,-139.0597 1664,-162 1664,-162 1664,-162 2205.3014,-162 2205.3014,-162"/>
<polygon fill="#000000" stroke="#000000" points="2205.3014,-165.5001 2215.3014,-162 2205.3014,-158.5001 2205.3014,-165.5001"/>
</g>
<!-- NbToastrModule.forRoot() -->
<g id="node15" class="node">
<title>NbToastrModule.forRoot()</title>
<polygon fill="#8dd3c7" stroke="#000000" points="1555.2891,-122 1552.2891,-126 1531.2891,-126 1528.2891,-122 1386.7109,-122 1386.7109,-86 1555.2891,-86 1555.2891,-122"/>
<text text-anchor="middle" x="1471" y="-99.8" font-family="Times,serif" font-size="14.00" fill="#000000">NbToastrModule.forRoot()</text>
</g>
<!-- NbToastrModule.forRoot()&#45;&gt;AppModule -->
<g id="edge14" class="edge">
<title>NbToastrModule.forRoot()&#45;&gt;AppModule</title>
<path fill="none" stroke="#000000" d="M1471,-122.2667C1471,-140.5552 1471,-166 1471,-166 1471,-166 2205.2962,-166 2205.2962,-166"/>
<polygon fill="#000000" stroke="#000000" points="2205.2962,-169.5001 2215.2962,-166 2205.2961,-162.5001 2205.2962,-169.5001"/>
</g>
<!-- NbChatModule.forRoot(args) -->
<g id="node16" class="node">
<title>NbChatModule.forRoot(args)</title>
<polygon fill="#8dd3c7" stroke="#000000" points="1368.2877,-122 1365.2877,-126 1344.2877,-126 1341.2877,-122 1185.7123,-122 1185.7123,-86 1368.2877,-86 1368.2877,-122"/>
<text text-anchor="middle" x="1277" y="-99.8" font-family="Times,serif" font-size="14.00" fill="#000000">NbChatModule.forRoot(args)</text>
</g>
<!-- NbChatModule.forRoot(args)&#45;&gt;AppModule -->
<g id="edge15" class="edge">
<title>NbChatModule.forRoot(args)&#45;&gt;AppModule</title>
<path fill="none" stroke="#000000" d="M1277,-122.1061C1277,-141.3391 1277,-169 1277,-169 1277,-169 2205.2041,-169 2205.2041,-169"/>
<polygon fill="#000000" stroke="#000000" points="2205.2042,-172.5001 2215.2041,-169 2205.2041,-165.5001 2205.2042,-172.5001"/>
</g>
<!-- NbEvaIconsModule -->
<g id="node17" class="node">
<title>NbEvaIconsModule</title>
<polygon fill="#8dd3c7" stroke="#000000" points="1167.2437,-122 1164.2437,-126 1143.2437,-126 1140.2437,-122 1038.7563,-122 1038.7563,-86 1167.2437,-86 1167.2437,-122"/>
<text text-anchor="middle" x="1103" y="-99.8" font-family="Times,serif" font-size="14.00" fill="#000000">NbEvaIconsModule</text>
</g>
<!-- NbEvaIconsModule&#45;&gt;AppModule -->
<g id="edge16" class="edge">
<title>NbEvaIconsModule&#45;&gt;AppModule</title>
<path fill="none" stroke="#000000" d="M1103,-122.1289C1103,-142.5724 1103,-173 1103,-173 1103,-173 2205.2468,-173 2205.2468,-173"/>
<polygon fill="#000000" stroke="#000000" points="2205.2468,-176.5001 2215.2468,-173 2205.2467,-169.5001 2205.2468,-176.5001"/>
</g>
<!-- CoreModule.forRoot() -->
<g id="node18" class="node">
<title>CoreModule.forRoot()</title>
<polygon fill="#8dd3c7" stroke="#000000" points="1020.6313,-122 1017.6313,-126 996.6313,-126 993.6313,-122 877.3687,-122 877.3687,-86 1020.6313,-86 1020.6313,-122"/>
<text text-anchor="middle" x="949" y="-99.8" font-family="Times,serif" font-size="14.00" fill="#000000">CoreModule.forRoot()</text>
</g>
<!-- CoreModule.forRoot()&#45;&gt;AppModule -->
<g id="edge17" class="edge">
<title>CoreModule.forRoot()&#45;&gt;AppModule</title>
<path fill="none" stroke="#000000" d="M949,-122.0449C949,-143.6623 949,-177 949,-177 949,-177 2205.3286,-177 2205.3286,-177"/>
<polygon fill="#000000" stroke="#000000" points="2205.3287,-180.5001 2215.3286,-177 2205.3286,-173.5001 2205.3287,-180.5001"/>
</g>
<!-- MarkdownModule.forRoot() -->
<g id="node19" class="node">
<title>MarkdownModule.forRoot()</title>
<polygon fill="#8dd3c7" stroke="#000000" points="859.8461,-122 856.8461,-126 835.8461,-126 832.8461,-122 682.1539,-122 682.1539,-86 859.8461,-86 859.8461,-122"/>
<text text-anchor="middle" x="771" y="-99.8" font-family="Times,serif" font-size="14.00" fill="#000000">MarkdownModule.forRoot()</text>
</g>
<!-- MarkdownModule.forRoot()&#45;&gt;AppModule -->
<g id="edge18" class="edge">
<title>MarkdownModule.forRoot()&#45;&gt;AppModule</title>
<path fill="none" stroke="#000000" d="M771,-122.0109C771,-144.4852 771,-180 771,-180 771,-180 2205.3136,-180 2205.3136,-180"/>
<polygon fill="#000000" stroke="#000000" points="2205.3136,-183.5001 2215.3136,-180 2205.3136,-176.5001 2205.3136,-183.5001"/>
</g>
<!-- { provide: APP_INITIALIZER, useFactory: init_app, deps: [Injector], multi: &#160;} -->
<g id="node21" class="node">
<title>{ provide: APP_INITIALIZER, useFactory: init_app, deps: [Injector], multi: &#160;}</title>
<ellipse fill="#fdb462" stroke="#000000" cx="341" cy="-104" rx="317.4066" ry="18"/>
<text text-anchor="middle" x="341" y="-99.8" font-family="Times,serif" font-size="14.00" fill="#000000">{ provide: APP_INITIALIZER, useFactory: init_app, deps: [Injector], multi: &#160;}</text>
</g>
<!-- { provide: APP_INITIALIZER, useFactory: init_app, deps: [Injector], multi: &#160;}&#45;&gt;AppModule -->
<g id="edge20" class="edge">
<title>{ provide: APP_INITIALIZER, useFactory: init_app, deps: [Injector], multi: &#160;}&#45;&gt;AppModule</title>
<path fill="none" stroke="#000000" d="M341,-122.1532C341,-145.7566 341,-184 341,-184 341,-184 2205.1997,-184 2205.1997,-184"/>
<polygon fill="#000000" stroke="#000000" points="2205.1998,-187.5001 2215.1997,-184 2205.1997,-180.5001 2205.1998,-187.5001"/>
</g>
</g>
</svg>
