<?xml version="1.0" encoding="UTF-8" standalone="no"?>
<!DOCTYPE svg PUBLIC "-//W3C//DTD SVG 1.1//EN"
 "http://www.w3.org/Graphics/SVG/1.1/DTD/svg11.dtd">
<!-- Generated by graphviz version 2.40.1 (20161225.0304)
 -->
<!-- Title: dependencies Pages: 1 -->
<svg width="920pt" height="211pt"
 viewBox="0.00 0.00 920.00 211.00" xmlns="http://www.w3.org/2000/svg" xmlns:xlink="http://www.w3.org/1999/xlink">
<g id="graph0" class="graph" transform="scale(1 1) rotate(0) translate(4 207)">
<title>dependencies</title>
<polygon fill="#ffffff" stroke="transparent" points="-4,4 -4,-207 916,-207 916,4 -4,4"/>
<text text-anchor="start" x="435.0091" y="-42.4" font-family="sans-serif" font-weight="bold" font-size="14.00" fill="#000000">Legend</text>
<polygon fill="#ffffb3" stroke="transparent" points="222,-10 222,-30 242,-30 242,-10 222,-10"/>
<text text-anchor="start" x="245.629" y="-15.4" font-family="sans-serif" font-size="14.00" fill="#000000"> &#160;Declarations</text>
<polygon fill="#8dd3c7" stroke="transparent" points="335,-10 335,-30 355,-30 355,-10 335,-10"/>
<text text-anchor="start" x="358.7251" y="-15.4" font-family="sans-serif" font-size="14.00" fill="#000000"> &#160;Module</text>
<polygon fill="#80b1d3" stroke="transparent" points="421,-10 421,-30 441,-30 441,-10 421,-10"/>
<text text-anchor="start" x="444.7812" y="-15.4" font-family="sans-serif" font-size="14.00" fill="#000000"> &#160;Bootstrap</text>
<polygon fill="#fdb462" stroke="transparent" points="518,-10 518,-30 538,-30 538,-10 518,-10"/>
<text text-anchor="start" x="541.6732" y="-15.4" font-family="sans-serif" font-size="14.00" fill="#000000"> &#160;Providers</text>
<polygon fill="#fb8072" stroke="transparent" points="614,-10 614,-30 634,-30 634,-10 614,-10"/>
<text text-anchor="start" x="637.7258" y="-15.4" font-family="sans-serif" font-size="14.00" fill="#000000"> &#160;Exports</text>
<g id="clust1" class="cluster">
<title>cluster_MiscellaneousModule</title>
<polygon fill="none" stroke="#000000" stroke-dasharray="1,5" points="8,-70 8,-195 904,-195 904,-70 8,-70"/>
</g>
<g id="clust2" class="cluster">
<title>cluster_MiscellaneousModule_declarations</title>
<polygon fill="none" stroke="#000000" points="342,-78 342,-130 896,-130 896,-78 342,-78"/>
</g>
<g id="clust6" class="cluster">
<title>cluster_MiscellaneousModule_imports</title>
<polygon fill="none" stroke="#000000" points="16,-78 16,-130 334,-130 334,-78 16,-78"/>
</g>
<!-- MiscellaneousComponent -->
<g id="node1" class="node">
<title>MiscellaneousComponent</title>
<polygon fill="#ffffb3" stroke="#000000" points="888.1965,-122 725.8035,-122 725.8035,-86 888.1965,-86 888.1965,-122"/>
<text text-anchor="middle" x="807" y="-99.8" font-family="Times,serif" font-size="14.00" fill="#000000">MiscellaneousComponent</text>
</g>
<!-- MiscellaneousModule -->
<g id="node4" class="node">
<title>MiscellaneousModule</title>
<polygon fill="#8dd3c7" stroke="#000000" points="521.4144,-187 518.4144,-191 497.4144,-191 494.4144,-187 380.5856,-187 380.5856,-151 521.4144,-151 521.4144,-187"/>
<text text-anchor="middle" x="451" y="-164.8" font-family="Times,serif" font-size="14.00" fill="#000000">MiscellaneousModule</text>
</g>
<!-- MiscellaneousComponent&#45;&gt;MiscellaneousModule -->
<g id="edge1" class="edge">
<title>MiscellaneousComponent&#45;&gt;MiscellaneousModule</title>
<path fill="none" stroke="#000000" d="M807,-122.2843C807,-143.3211 807,-175 807,-175 807,-175 531.3341,-175 531.3341,-175"/>
<polygon fill="#000000" stroke="#000000" points="531.3342,-171.5001 521.3341,-175 531.3341,-178.5001 531.3342,-171.5001"/>
</g>
<!-- NotFoundComponent -->
<g id="node2" class="node">
<title>NotFoundComponent</title>
<polygon fill="#ffffb3" stroke="#000000" points="708.1122,-122 569.8878,-122 569.8878,-86 708.1122,-86 708.1122,-122"/>
<text text-anchor="middle" x="639" y="-99.8" font-family="Times,serif" font-size="14.00" fill="#000000">NotFoundComponent</text>
</g>
<!-- NotFoundComponent&#45;&gt;MiscellaneousModule -->
<g id="edge2" class="edge">
<title>NotFoundComponent&#45;&gt;MiscellaneousModule</title>
<path fill="none" stroke="#000000" d="M639,-122.0225C639,-139.3734 639,-163 639,-163 639,-163 531.2716,-163 531.2716,-163"/>
<polygon fill="#000000" stroke="#000000" points="531.2716,-159.5001 521.2716,-163 531.2716,-166.5001 531.2716,-159.5001"/>
</g>
<!-- TermsAndConditionsComponent -->
<g id="node3" class="node">
<title>TermsAndConditionsComponent</title>
<polygon fill="#ffffb3" stroke="#000000" points="552.1553,-122 349.8447,-122 349.8447,-86 552.1553,-86 552.1553,-122"/>
<text text-anchor="middle" x="451" y="-99.8" font-family="Times,serif" font-size="14.00" fill="#000000">TermsAndConditionsComponent</text>
</g>
<!-- TermsAndConditionsComponent&#45;&gt;MiscellaneousModule -->
<g id="edge3" class="edge">
<title>TermsAndConditionsComponent&#45;&gt;MiscellaneousModule</title>
<path fill="none" stroke="#000000" d="M451,-122.1061C451,-122.1061 451,-140.991 451,-140.991"/>
<polygon fill="#000000" stroke="#000000" points="447.5001,-140.9909 451,-150.991 454.5001,-140.991 447.5001,-140.9909"/>
</g>
<!-- ThemeModule -->
<g id="node5" class="node">
<title>ThemeModule</title>
<polygon fill="#8dd3c7" stroke="#000000" points="326.4231,-122 323.4231,-126 302.4231,-126 299.4231,-122 227.5769,-122 227.5769,-86 326.4231,-86 326.4231,-122"/>
<text text-anchor="middle" x="277" y="-99.8" font-family="Times,serif" font-size="14.00" fill="#000000">ThemeModule</text>
</g>
<!-- ThemeModule&#45;&gt;MiscellaneousModule -->
<g id="edge4" class="edge">
<title>ThemeModule&#45;&gt;MiscellaneousModule</title>
<path fill="none" stroke="#000000" d="M277,-122.0225C277,-139.3734 277,-163 277,-163 277,-163 370.7291,-163 370.7291,-163"/>
<polygon fill="#000000" stroke="#000000" points="370.7291,-166.5001 380.7291,-163 370.7291,-159.5001 370.7291,-166.5001"/>
</g>
<!-- MiscellaneousRoutingModule -->
<g id="node6" class="node">
<title>MiscellaneousRoutingModule</title>
<polygon fill="#8dd3c7" stroke="#000000" points="209.5322,-122 206.5322,-126 185.5322,-126 182.5322,-122 24.4678,-122 24.4678,-86 209.5322,-86 209.5322,-122"/>
<text text-anchor="middle" x="117" y="-99.8" font-family="Times,serif" font-size="14.00" fill="#000000">MiscellaneousRoutingModule</text>
</g>
<!-- MiscellaneousRoutingModule&#45;&gt;MiscellaneousModule -->
<g id="edge5" class="edge">
<title>MiscellaneousRoutingModule&#45;&gt;MiscellaneousModule</title>
<path fill="none" stroke="#000000" d="M117,-122.2843C117,-143.3211 117,-175 117,-175 117,-175 370.5753,-175 370.5753,-175"/>
<polygon fill="#000000" stroke="#000000" points="370.5753,-178.5001 380.5753,-175 370.5753,-171.5001 370.5753,-178.5001"/>
</g>
</g>
</svg>
