<?xml version="1.0" encoding="UTF-8" standalone="no"?>
<!DOCTYPE svg PUBLIC "-//W3C//DTD SVG 1.1//EN"
 "http://www.w3.org/Graphics/SVG/1.1/DTD/svg11.dtd">
<!-- Generated by graphviz version 2.40.1 (20161225.0304)
 -->
<!-- Title: dependencies Pages: 1 -->
<svg width="1312pt" height="211pt"
 viewBox="0.00 0.00 1312.00 211.00" xmlns="http://www.w3.org/2000/svg" xmlns:xlink="http://www.w3.org/1999/xlink">
<g id="graph0" class="graph" transform="scale(1 1) rotate(0) translate(4 207)">
<title>dependencies</title>
<polygon fill="#ffffff" stroke="transparent" points="-4,4 -4,-207 1308,-207 1308,4 -4,4"/>
<text text-anchor="start" x="631.0091" y="-42.4" font-family="sans-serif" font-weight="bold" font-size="14.00" fill="#000000">Legend</text>
<polygon fill="#ffffb3" stroke="transparent" points="418,-10 418,-30 438,-30 438,-10 418,-10"/>
<text text-anchor="start" x="441.629" y="-15.4" font-family="sans-serif" font-size="14.00" fill="#000000"> &#160;Declarations</text>
<polygon fill="#8dd3c7" stroke="transparent" points="531,-10 531,-30 551,-30 551,-10 531,-10"/>
<text text-anchor="start" x="554.7251" y="-15.4" font-family="sans-serif" font-size="14.00" fill="#000000"> &#160;Module</text>
<polygon fill="#80b1d3" stroke="transparent" points="617,-10 617,-30 637,-30 637,-10 617,-10"/>
<text text-anchor="start" x="640.7812" y="-15.4" font-family="sans-serif" font-size="14.00" fill="#000000"> &#160;Bootstrap</text>
<polygon fill="#fdb462" stroke="transparent" points="714,-10 714,-30 734,-30 734,-10 714,-10"/>
<text text-anchor="start" x="737.6732" y="-15.4" font-family="sans-serif" font-size="14.00" fill="#000000"> &#160;Providers</text>
<polygon fill="#fb8072" stroke="transparent" points="810,-10 810,-30 830,-30 830,-10 810,-10"/>
<text text-anchor="start" x="833.7258" y="-15.4" font-family="sans-serif" font-size="14.00" fill="#000000"> &#160;Exports</text>
<g id="clust1" class="cluster">
<title>cluster_MiscellaneousModule</title>
<polygon fill="none" stroke="#000000" stroke-dasharray="1,5" points="8,-70 8,-195 1296,-195 1296,-70 8,-70"/>
</g>
<g id="clust2" class="cluster">
<title>cluster_MiscellaneousModule_declarations</title>
<polygon fill="none" stroke="#000000" points="734,-78 734,-130 1288,-130 1288,-78 734,-78"/>
</g>
<g id="clust6" class="cluster">
<title>cluster_MiscellaneousModule_imports</title>
<polygon fill="none" stroke="#000000" points="16,-78 16,-130 726,-130 726,-78 16,-78"/>
</g>
<!-- MiscellaneousComponent -->
<g id="node1" class="node">
<title>MiscellaneousComponent</title>
<polygon fill="#ffffb3" stroke="#000000" points="1280.1965,-122 1117.8035,-122 1117.8035,-86 1280.1965,-86 1280.1965,-122"/>
<text text-anchor="middle" x="1199" y="-99.8" font-family="Times,serif" font-size="14.00" fill="#000000">MiscellaneousComponent</text>
</g>
<!-- MiscellaneousModule -->
<g id="node4" class="node">
<title>MiscellaneousModule</title>
<polygon fill="#8dd3c7" stroke="#000000" points="679.4144,-187 676.4144,-191 655.4144,-191 652.4144,-187 538.5856,-187 538.5856,-151 679.4144,-151 679.4144,-187"/>
<text text-anchor="middle" x="609" y="-164.8" font-family="Times,serif" font-size="14.00" fill="#000000">MiscellaneousModule</text>
</g>
<!-- MiscellaneousComponent&#45;&gt;MiscellaneousModule -->
<g id="edge1" class="edge">
<title>MiscellaneousComponent&#45;&gt;MiscellaneousModule</title>
<path fill="none" stroke="#000000" d="M1199,-122.2921C1199,-144.2057 1199,-178 1199,-178 1199,-178 689.2895,-178 689.2895,-178"/>
<polygon fill="#000000" stroke="#000000" points="689.2895,-174.5001 679.2895,-178 689.2894,-181.5001 689.2895,-174.5001"/>
</g>
<!-- NotFoundComponent -->
<g id="node2" class="node">
<title>NotFoundComponent</title>
<polygon fill="#ffffb3" stroke="#000000" points="1100.1122,-122 961.8878,-122 961.8878,-86 1100.1122,-86 1100.1122,-122"/>
<text text-anchor="middle" x="1031" y="-99.8" font-family="Times,serif" font-size="14.00" fill="#000000">NotFoundComponent</text>
</g>
<!-- NotFoundComponent&#45;&gt;MiscellaneousModule -->
<g id="edge2" class="edge">
<title>NotFoundComponent&#45;&gt;MiscellaneousModule</title>
<path fill="none" stroke="#000000" d="M1031,-122.1061C1031,-141.3391 1031,-169 1031,-169 1031,-169 689.6333,-169 689.6333,-169"/>
<polygon fill="#000000" stroke="#000000" points="689.6333,-165.5001 679.6333,-169 689.6333,-172.5001 689.6333,-165.5001"/>
</g>
<!-- TermsAndConditionsComponent -->
<g id="node3" class="node">
<title>TermsAndConditionsComponent</title>
<polygon fill="#ffffb3" stroke="#000000" points="944.1553,-122 741.8447,-122 741.8447,-86 944.1553,-86 944.1553,-122"/>
<text text-anchor="middle" x="843" y="-99.8" font-family="Times,serif" font-size="14.00" fill="#000000">TermsAndConditionsComponent</text>
</g>
<!-- TermsAndConditionsComponent&#45;&gt;MiscellaneousModule -->
<g id="edge3" class="edge">
<title>TermsAndConditionsComponent&#45;&gt;MiscellaneousModule</title>
<path fill="none" stroke="#000000" d="M843,-122.027C843,-138.3976 843,-160 843,-160 843,-160 689.2077,-160 689.2077,-160"/>
<polygon fill="#000000" stroke="#000000" points="689.2078,-156.5001 679.2077,-160 689.2077,-163.5001 689.2078,-156.5001"/>
</g>
<!-- ThemeModule -->
<g id="node5" class="node">
<title>ThemeModule</title>
<polygon fill="#8dd3c7" stroke="#000000" points="718.4231,-122 715.4231,-126 694.4231,-126 691.4231,-122 619.5769,-122 619.5769,-86 718.4231,-86 718.4231,-122"/>
<text text-anchor="middle" x="669" y="-99.8" font-family="Times,serif" font-size="14.00" fill="#000000">ThemeModule</text>
</g>
<!-- ThemeModule&#45;&gt;MiscellaneousModule -->
<g id="edge4" class="edge">
<title>ThemeModule&#45;&gt;MiscellaneousModule</title>
<path fill="none" stroke="#000000" d="M649.4979,-122.1061C649.4979,-122.1061 649.4979,-140.991 649.4979,-140.991"/>
<polygon fill="#000000" stroke="#000000" points="645.998,-140.9909 649.4979,-150.991 652.998,-140.991 645.998,-140.9909"/>
</g>
<!-- NbCardModule -->
<g id="node6" class="node">
<title>NbCardModule</title>
<polygon fill="#8dd3c7" stroke="#000000" points="601.8683,-122 598.8683,-126 577.8683,-126 574.8683,-122 498.1317,-122 498.1317,-86 601.8683,-86 601.8683,-122"/>
<text text-anchor="middle" x="550" y="-99.8" font-family="Times,serif" font-size="14.00" fill="#000000">NbCardModule</text>
</g>
<!-- NbCardModule&#45;&gt;MiscellaneousModule -->
<g id="edge5" class="edge">
<title>NbCardModule&#45;&gt;MiscellaneousModule</title>
<path fill="none" stroke="#000000" d="M570.3636,-122.1061C570.3636,-122.1061 570.3636,-140.991 570.3636,-140.991"/>
<polygon fill="#000000" stroke="#000000" points="566.8637,-140.9909 570.3636,-150.991 573.8637,-140.991 566.8637,-140.9909"/>
</g>
<!-- NbButtonModule -->
<g id="node7" class="node">
<title>NbButtonModule</title>
<polygon fill="#8dd3c7" stroke="#000000" points="480.2744,-122 477.2744,-126 456.2744,-126 453.2744,-122 365.7256,-122 365.7256,-86 480.2744,-86 480.2744,-122"/>
<text text-anchor="middle" x="423" y="-99.8" font-family="Times,serif" font-size="14.00" fill="#000000">NbButtonModule</text>
</g>
<!-- NbButtonModule&#45;&gt;MiscellaneousModule -->
<g id="edge6" class="edge">
<title>NbButtonModule&#45;&gt;MiscellaneousModule</title>
<path fill="none" stroke="#000000" d="M423,-122.027C423,-138.3976 423,-160 423,-160 423,-160 528.6814,-160 528.6814,-160"/>
<polygon fill="#000000" stroke="#000000" points="528.6814,-163.5001 538.6814,-160 528.6813,-156.5001 528.6814,-163.5001"/>
</g>
<!-- MiscellaneousRoutingModule -->
<g id="node8" class="node">
<title>MiscellaneousRoutingModule</title>
<polygon fill="#8dd3c7" stroke="#000000" points="347.5322,-122 344.5322,-126 323.5322,-126 320.5322,-122 162.4678,-122 162.4678,-86 347.5322,-86 347.5322,-122"/>
<text text-anchor="middle" x="255" y="-99.8" font-family="Times,serif" font-size="14.00" fill="#000000">MiscellaneousRoutingModule</text>
</g>
<!-- MiscellaneousRoutingModule&#45;&gt;MiscellaneousModule -->
<g id="edge7" class="edge">
<title>MiscellaneousRoutingModule&#45;&gt;MiscellaneousModule</title>
<path fill="none" stroke="#000000" d="M255,-122.1061C255,-141.3391 255,-169 255,-169 255,-169 528.6377,-169 528.6377,-169"/>
<polygon fill="#000000" stroke="#000000" points="528.6378,-172.5001 538.6377,-169 528.6377,-165.5001 528.6378,-172.5001"/>
</g>
<!-- MarkdownModule -->
<g id="node9" class="node">
<title>MarkdownModule</title>
<polygon fill="#8dd3c7" stroke="#000000" points="144.4762,-122 141.4762,-126 120.4762,-126 117.4762,-122 23.5238,-122 23.5238,-86 144.4762,-86 144.4762,-122"/>
<text text-anchor="middle" x="84" y="-99.8" font-family="Times,serif" font-size="14.00" fill="#000000">MarkdownModule</text>
</g>
<!-- MarkdownModule&#45;&gt;MiscellaneousModule -->
<g id="edge8" class="edge">
<title>MarkdownModule&#45;&gt;MiscellaneousModule</title>
<path fill="none" stroke="#000000" d="M84,-122.2921C84,-144.2057 84,-178 84,-178 84,-178 528.7409,-178 528.7409,-178"/>
<polygon fill="#000000" stroke="#000000" points="528.741,-181.5001 538.7409,-178 528.7409,-174.5001 528.741,-181.5001"/>
</g>
</g>
</svg>
