<?xml version="1.0" encoding="UTF-8" standalone="no"?>
<!DOCTYPE svg PUBLIC "-//W3C//DTD SVG 1.1//EN"
 "http://www.w3.org/Graphics/SVG/1.1/DTD/svg11.dtd">
<!-- Generated by graphviz version 2.40.1 (20161225.0304)
 -->
<!-- Title: dependencies Pages: 1 -->
<svg width="2349pt" height="211pt"
 viewBox="0.00 0.00 2349.00 211.00" xmlns="http://www.w3.org/2000/svg" xmlns:xlink="http://www.w3.org/1999/xlink">
<g id="graph0" class="graph" transform="scale(1 1) rotate(0) translate(4 207)">
<title>dependencies</title>
<polygon fill="#ffffff" stroke="transparent" points="-4,4 -4,-207 2345,-207 2345,4 -4,4"/>
<text text-anchor="start" x="1149.5091" y="-42.4" font-family="sans-serif" font-weight="bold" font-size="14.00" fill="#000000">Legend</text>
<polygon fill="#ffffb3" stroke="transparent" points="936.5,-10 936.5,-30 956.5,-30 956.5,-10 936.5,-10"/>
<text text-anchor="start" x="960.129" y="-15.4" font-family="sans-serif" font-size="14.00" fill="#000000"> &#160;Declarations</text>
<polygon fill="#8dd3c7" stroke="transparent" points="1049.5,-10 1049.5,-30 1069.5,-30 1069.5,-10 1049.5,-10"/>
<text text-anchor="start" x="1073.2251" y="-15.4" font-family="sans-serif" font-size="14.00" fill="#000000"> &#160;Module</text>
<polygon fill="#80b1d3" stroke="transparent" points="1135.5,-10 1135.5,-30 1155.5,-30 1155.5,-10 1135.5,-10"/>
<text text-anchor="start" x="1159.2812" y="-15.4" font-family="sans-serif" font-size="14.00" fill="#000000"> &#160;Bootstrap</text>
<polygon fill="#fdb462" stroke="transparent" points="1232.5,-10 1232.5,-30 1252.5,-30 1252.5,-10 1232.5,-10"/>
<text text-anchor="start" x="1256.1732" y="-15.4" font-family="sans-serif" font-size="14.00" fill="#000000"> &#160;Providers</text>
<polygon fill="#fb8072" stroke="transparent" points="1328.5,-10 1328.5,-30 1348.5,-30 1348.5,-10 1328.5,-10"/>
<text text-anchor="start" x="1352.2258" y="-15.4" font-family="sans-serif" font-size="14.00" fill="#000000"> &#160;Exports</text>
<g id="clust1" class="cluster">
<title>cluster_UserDashboardModule</title>
<polygon fill="none" stroke="#000000" stroke-dasharray="1,5" points="8,-70 8,-195 2333,-195 2333,-70 8,-70"/>
</g>
<g id="clust2" class="cluster">
<title>cluster_UserDashboardModule_declarations</title>
<polygon fill="none" stroke="#000000" points="874,-78 874,-130 2325,-130 2325,-78 874,-78"/>
</g>
<g id="clust11" class="cluster">
<title>cluster_UserDashboardModule_imports</title>
<polygon fill="none" stroke="#000000" points="16,-78 16,-130 866,-130 866,-78 16,-78"/>
</g>
<!-- UserDashboardComponent -->
<g id="node1" class="node">
<title>UserDashboardComponent</title>
<polygon fill="#ffffb3" stroke="#000000" points="2317.4003,-122 2148.5997,-122 2148.5997,-86 2317.4003,-86 2317.4003,-122"/>
<text text-anchor="middle" x="2233" y="-99.8" font-family="Times,serif" font-size="14.00" fill="#000000">UserDashboardComponent</text>
</g>
<!-- UserDashboardModule -->
<g id="node9" class="node">
<title>UserDashboardModule</title>
<polygon fill="#8dd3c7" stroke="#000000" points="1099.1177,-187 1096.1177,-191 1075.1177,-191 1072.1177,-187 952.8823,-187 952.8823,-151 1099.1177,-151 1099.1177,-187"/>
<text text-anchor="middle" x="1026" y="-164.8" font-family="Times,serif" font-size="14.00" fill="#000000">UserDashboardModule</text>
</g>
<!-- UserDashboardComponent&#45;&gt;UserDashboardModule -->
<g id="edge1" class="edge">
<title>UserDashboardComponent&#45;&gt;UserDashboardModule</title>
<path fill="none" stroke="#000000" d="M2233,-122.0908C2233,-145.1328 2233,-182 2233,-182 2233,-182 1109.2351,-182 1109.2351,-182"/>
<polygon fill="#000000" stroke="#000000" points="1109.2351,-178.5001 1099.2351,-182 1109.2351,-185.5001 1109.2351,-178.5001"/>
</g>
<!-- LeaderboardRankingComponent -->
<g id="node2" class="node">
<title>LeaderboardRankingComponent</title>
<polygon fill="#ffffb3" stroke="#000000" points="2130.507,-122 1931.493,-122 1931.493,-86 2130.507,-86 2130.507,-122"/>
<text text-anchor="middle" x="2031" y="-99.8" font-family="Times,serif" font-size="14.00" fill="#000000">LeaderboardRankingComponent</text>
</g>
<!-- LeaderboardRankingComponent&#45;&gt;UserDashboardModule -->
<g id="edge2" class="edge">
<title>LeaderboardRankingComponent&#45;&gt;UserDashboardModule</title>
<path fill="none" stroke="#000000" d="M2031,-122.0449C2031,-143.6623 2031,-177 2031,-177 2031,-177 1109.4929,-177 1109.4929,-177"/>
<polygon fill="#000000" stroke="#000000" points="1109.4929,-173.5001 1099.4929,-177 1109.4928,-180.5001 1109.4929,-173.5001"/>
</g>
<!-- ModelsUploadedComponent -->
<g id="node3" class="node">
<title>ModelsUploadedComponent</title>
<polygon fill="#ffffb3" stroke="#000000" points="1912.7534,-122 1735.2466,-122 1735.2466,-86 1912.7534,-86 1912.7534,-122"/>
<text text-anchor="middle" x="1824" y="-99.8" font-family="Times,serif" font-size="14.00" fill="#000000">ModelsUploadedComponent</text>
</g>
<!-- ModelsUploadedComponent&#45;&gt;UserDashboardModule -->
<g id="edge3" class="edge">
<title>ModelsUploadedComponent&#45;&gt;UserDashboardModule</title>
<path fill="none" stroke="#000000" d="M1824,-122.2228C1824,-142.3652 1824,-172 1824,-172 1824,-172 1109.2877,-172 1109.2877,-172"/>
<polygon fill="#000000" stroke="#000000" points="1109.2878,-168.5001 1099.2877,-172 1109.2877,-175.5001 1109.2878,-168.5001"/>
</g>
<!-- ModelsAwaitingTestingComponent -->
<g id="node4" class="node">
<title>ModelsAwaitingTestingComponent</title>
<polygon fill="#ffffb3" stroke="#000000" points="1716.9198,-122 1499.0802,-122 1499.0802,-86 1716.9198,-86 1716.9198,-122"/>
<text text-anchor="middle" x="1608" y="-99.8" font-family="Times,serif" font-size="14.00" fill="#000000">ModelsAwaitingTestingComponent</text>
</g>
<!-- ModelsAwaitingTestingComponent&#45;&gt;UserDashboardModule -->
<g id="edge4" class="edge">
<title>ModelsAwaitingTestingComponent&#45;&gt;UserDashboardModule</title>
<path fill="none" stroke="#000000" d="M1608,-122.2222C1608,-140.8285 1608,-167 1608,-167 1608,-167 1109.1214,-167 1109.1214,-167"/>
<polygon fill="#000000" stroke="#000000" points="1109.1214,-163.5001 1099.1214,-167 1109.1214,-170.5001 1109.1214,-163.5001"/>
</g>
<!-- UpdatesComponent -->
<g id="node5" class="node">
<title>UpdatesComponent</title>
<polygon fill="#ffffb3" stroke="#000000" points="1481.7036,-122 1354.2964,-122 1354.2964,-86 1481.7036,-86 1481.7036,-122"/>
<text text-anchor="middle" x="1418" y="-99.8" font-family="Times,serif" font-size="14.00" fill="#000000">UpdatesComponent</text>
</g>
<!-- UpdatesComponent&#45;&gt;UserDashboardModule -->
<g id="edge5" class="edge">
<title>UpdatesComponent&#45;&gt;UserDashboardModule</title>
<path fill="none" stroke="#000000" d="M1418,-122.0336C1418,-139.0597 1418,-162 1418,-162 1418,-162 1109.2724,-162 1109.2724,-162"/>
<polygon fill="#000000" stroke="#000000" points="1109.2724,-158.5001 1099.2724,-162 1109.2723,-165.5001 1109.2724,-158.5001"/>
</g>
<!-- UploadModelComponent -->
<g id="node6" class="node">
<title>UploadModelComponent</title>
<polygon fill="#ffffb3" stroke="#000000" points="1336.594,-122 1177.406,-122 1177.406,-86 1336.594,-86 1336.594,-122"/>
<text text-anchor="middle" x="1257" y="-99.8" font-family="Times,serif" font-size="14.00" fill="#000000">UploadModelComponent</text>
</g>
<!-- UploadModelComponent&#45;&gt;UserDashboardModule -->
<g id="edge6" class="edge">
<title>UploadModelComponent&#45;&gt;UserDashboardModule</title>
<path fill="none" stroke="#000000" d="M1257,-122.2396C1257,-137.5706 1257,-157 1257,-157 1257,-157 1109.4072,-157 1109.4072,-157"/>
<polygon fill="#000000" stroke="#000000" points="1109.4073,-153.5001 1099.4072,-157 1109.4072,-160.5001 1109.4073,-153.5001"/>
</g>
<!-- FsIconComponent -->
<g id="node7" class="node">
<title>FsIconComponent</title>
<polygon fill="#ffffb3" stroke="#000000" points="1159.9356,-122 1040.0644,-122 1040.0644,-86 1159.9356,-86 1159.9356,-122"/>
<text text-anchor="middle" x="1100" y="-99.8" font-family="Times,serif" font-size="14.00" fill="#000000">FsIconComponent</text>
</g>
<!-- FsIconComponent&#45;&gt;UserDashboardModule -->
<g id="edge7" class="edge">
<title>FsIconComponent&#45;&gt;UserDashboardModule</title>
<path fill="none" stroke="#000000" d="M1069.7956,-122.1061C1069.7956,-122.1061 1069.7956,-140.991 1069.7956,-140.991"/>
<polygon fill="#000000" stroke="#000000" points="1066.2957,-140.9909 1069.7956,-150.991 1073.2957,-140.991 1066.2957,-140.9909"/>
</g>
<!-- ModelListComponent -->
<g id="node8" class="node">
<title>ModelListComponent</title>
<polygon fill="#ffffb3" stroke="#000000" points="1021.661,-122 882.339,-122 882.339,-86 1021.661,-86 1021.661,-122"/>
<text text-anchor="middle" x="952" y="-99.8" font-family="Times,serif" font-size="14.00" fill="#000000">ModelListComponent</text>
</g>
<!-- ModelListComponent&#45;&gt;UserDashboardModule -->
<g id="edge8" class="edge">
<title>ModelListComponent&#45;&gt;UserDashboardModule</title>
<path fill="none" stroke="#000000" d="M987.2609,-122.1061C987.2609,-122.1061 987.2609,-140.991 987.2609,-140.991"/>
<polygon fill="#000000" stroke="#000000" points="983.7609,-140.9909 987.2609,-150.991 990.7609,-140.991 983.7609,-140.9909"/>
</g>
<!-- CommonModule -->
<g id="node10" class="node">
<title>CommonModule</title>
<polygon fill="#8dd3c7" stroke="#000000" points="857.6681,-122 854.6681,-126 833.6681,-126 830.6681,-122 746.3319,-122 746.3319,-86 857.6681,-86 857.6681,-122"/>
<text text-anchor="middle" x="802" y="-99.8" font-family="Times,serif" font-size="14.00" fill="#000000">CommonModule</text>
</g>
<!-- CommonModule&#45;&gt;UserDashboardModule -->
<g id="edge9" class="edge">
<title>CommonModule&#45;&gt;UserDashboardModule</title>
<path fill="none" stroke="#000000" d="M802,-122.2396C802,-137.5706 802,-157 802,-157 802,-157 942.654,-157 942.654,-157"/>
<polygon fill="#000000" stroke="#000000" points="942.6541,-160.5001 952.654,-157 942.654,-153.5001 942.6541,-160.5001"/>
</g>
<!-- FormsModule -->
<g id="node11" class="node">
<title>FormsModule</title>
<polygon fill="#8dd3c7" stroke="#000000" points="728.8288,-122 725.8288,-126 704.8288,-126 701.8288,-122 633.1712,-122 633.1712,-86 728.8288,-86 728.8288,-122"/>
<text text-anchor="middle" x="681" y="-99.8" font-family="Times,serif" font-size="14.00" fill="#000000">FormsModule</text>
</g>
<!-- FormsModule&#45;&gt;UserDashboardModule -->
<g id="edge10" class="edge">
<title>FormsModule&#45;&gt;UserDashboardModule</title>
<path fill="none" stroke="#000000" d="M681,-122.0336C681,-139.0597 681,-162 681,-162 681,-162 942.8344,-162 942.8344,-162"/>
<polygon fill="#000000" stroke="#000000" points="942.8344,-165.5001 952.8344,-162 942.8343,-158.5001 942.8344,-165.5001"/>
</g>
<!-- ReactiveFormsModule -->
<g id="node12" class="node">
<title>ReactiveFormsModule</title>
<polygon fill="#8dd3c7" stroke="#000000" points="615.3047,-122 612.3047,-126 591.3047,-126 588.3047,-122 470.6953,-122 470.6953,-86 615.3047,-86 615.3047,-122"/>
<text text-anchor="middle" x="543" y="-99.8" font-family="Times,serif" font-size="14.00" fill="#000000">ReactiveFormsModule</text>
</g>
<!-- ReactiveFormsModule&#45;&gt;UserDashboardModule -->
<g id="edge11" class="edge">
<title>ReactiveFormsModule&#45;&gt;UserDashboardModule</title>
<path fill="none" stroke="#000000" d="M543,-122.2222C543,-140.8285 543,-167 543,-167 543,-167 942.6427,-167 942.6427,-167"/>
<polygon fill="#000000" stroke="#000000" points="942.6427,-170.5001 952.6427,-167 942.6427,-163.5001 942.6427,-170.5001"/>
</g>
<!-- Ng2SmartTableModule -->
<g id="node13" class="node">
<title>Ng2SmartTableModule</title>
<polygon fill="#8dd3c7" stroke="#000000" points="452.4678,-122 449.4678,-126 428.4678,-126 425.4678,-122 303.5322,-122 303.5322,-86 452.4678,-86 452.4678,-122"/>
<text text-anchor="middle" x="378" y="-99.8" font-family="Times,serif" font-size="14.00" fill="#000000">Ng2SmartTableModule</text>
</g>
<!-- Ng2SmartTableModule&#45;&gt;UserDashboardModule -->
<g id="edge12" class="edge">
<title>Ng2SmartTableModule&#45;&gt;UserDashboardModule</title>
<path fill="none" stroke="#000000" d="M378,-122.2228C378,-142.3652 378,-172 378,-172 378,-172 942.6117,-172 942.6117,-172"/>
<polygon fill="#000000" stroke="#000000" points="942.6117,-175.5001 952.6117,-172 942.6117,-168.5001 942.6117,-175.5001"/>
</g>
<!-- FileUploadModule -->
<g id="node14" class="node">
<title>FileUploadModule</title>
<polygon fill="#8dd3c7" stroke="#000000" points="285.0409,-122 282.0409,-126 261.0409,-126 258.0409,-122 162.9591,-122 162.9591,-86 285.0409,-86 285.0409,-122"/>
<text text-anchor="middle" x="224" y="-99.8" font-family="Times,serif" font-size="14.00" fill="#000000">FileUploadModule</text>
</g>
<!-- FileUploadModule&#45;&gt;UserDashboardModule -->
<g id="edge13" class="edge">
<title>FileUploadModule&#45;&gt;UserDashboardModule</title>
<path fill="none" stroke="#000000" d="M224,-122.0449C224,-143.6623 224,-177 224,-177 224,-177 942.7018,-177 942.7018,-177"/>
<polygon fill="#000000" stroke="#000000" points="942.7018,-180.5001 952.7018,-177 942.7017,-173.5001 942.7018,-180.5001"/>
</g>
<!-- ...NB_MODULES -->
<g id="node15" class="node">
<title>...NB_MODULES</title>
<polygon fill="#8dd3c7" stroke="#000000" points="144.0961,-122 141.0961,-126 120.0961,-126 117.0961,-122 23.9039,-122 23.9039,-86 144.0961,-86 144.0961,-122"/>
<text text-anchor="middle" x="84" y="-99.8" font-family="Times,serif" font-size="14.00" fill="#000000">...NB_MODULES</text>
</g>
<!-- ...NB_MODULES&#45;&gt;UserDashboardModule -->
<g id="edge14" class="edge">
<title>...NB_MODULES&#45;&gt;UserDashboardModule</title>
<path fill="none" stroke="#000000" d="M84,-122.0908C84,-145.1328 84,-182 84,-182 84,-182 942.8667,-182 942.8667,-182"/>
<polygon fill="#000000" stroke="#000000" points="942.8667,-185.5001 952.8667,-182 942.8667,-178.5001 942.8667,-185.5001"/>
</g>
</g>
</svg>
