<?xml version="1.0" encoding="UTF-8" standalone="no"?>
<!DOCTYPE svg PUBLIC "-//W3C//DTD SVG 1.1//EN"
 "http://www.w3.org/Graphics/SVG/1.1/DTD/svg11.dtd">
<!-- Generated by graphviz version 2.40.1 (20161225.0304)
 -->
<!-- Title: dependencies Pages: 1 -->
<svg width="1491pt" height="211pt"
 viewBox="0.00 0.00 1491.00 211.00" xmlns="http://www.w3.org/2000/svg" xmlns:xlink="http://www.w3.org/1999/xlink">
<g id="graph0" class="graph" transform="scale(1 1) rotate(0) translate(4 207)">
<title>dependencies</title>
<polygon fill="#ffffff" stroke="transparent" points="-4,4 -4,-207 1487,-207 1487,4 -4,4"/>
<text text-anchor="start" x="720.5091" y="-42.4" font-family="sans-serif" font-weight="bold" font-size="14.00" fill="#000000">Legend</text>
<polygon fill="#ffffb3" stroke="transparent" points="507.5,-10 507.5,-30 527.5,-30 527.5,-10 507.5,-10"/>
<text text-anchor="start" x="531.129" y="-15.4" font-family="sans-serif" font-size="14.00" fill="#000000"> &#160;Declarations</text>
<polygon fill="#8dd3c7" stroke="transparent" points="620.5,-10 620.5,-30 640.5,-30 640.5,-10 620.5,-10"/>
<text text-anchor="start" x="644.2251" y="-15.4" font-family="sans-serif" font-size="14.00" fill="#000000"> &#160;Module</text>
<polygon fill="#80b1d3" stroke="transparent" points="706.5,-10 706.5,-30 726.5,-30 726.5,-10 706.5,-10"/>
<text text-anchor="start" x="730.2812" y="-15.4" font-family="sans-serif" font-size="14.00" fill="#000000"> &#160;Bootstrap</text>
<polygon fill="#fdb462" stroke="transparent" points="803.5,-10 803.5,-30 823.5,-30 823.5,-10 803.5,-10"/>
<text text-anchor="start" x="827.1732" y="-15.4" font-family="sans-serif" font-size="14.00" fill="#000000"> &#160;Providers</text>
<polygon fill="#fb8072" stroke="transparent" points="899.5,-10 899.5,-30 919.5,-30 919.5,-10 899.5,-10"/>
<text text-anchor="start" x="923.2258" y="-15.4" font-family="sans-serif" font-size="14.00" fill="#000000"> &#160;Exports</text>
<g id="clust1" class="cluster">
<title>cluster_UserDashboardModule</title>
<polygon fill="none" stroke="#000000" stroke-dasharray="1,5" points="8,-70 8,-195 1475,-195 1475,-70 8,-70"/>
</g>
<g id="clust2" class="cluster">
<title>cluster_UserDashboardModule_declarations</title>
<polygon fill="none" stroke="#000000" points="16,-78 16,-130 1467,-130 1467,-78 16,-78"/>
</g>
<!-- UserDashboardComponent -->
<g id="node1" class="node">
<title>UserDashboardComponent</title>
<polygon fill="#ffffb3" stroke="#000000" points="1459.4003,-122 1290.5997,-122 1290.5997,-86 1459.4003,-86 1459.4003,-122"/>
<text text-anchor="middle" x="1375" y="-99.8" font-family="Times,serif" font-size="14.00" fill="#000000">UserDashboardComponent</text>
</g>
<!-- UserDashboardModule -->
<g id="node9" class="node">
<title>UserDashboardModule</title>
<polygon fill="#8dd3c7" stroke="#000000" points="728.1177,-187 725.1177,-191 704.1177,-191 701.1177,-187 581.8823,-187 581.8823,-151 728.1177,-151 728.1177,-187"/>
<text text-anchor="middle" x="655" y="-164.8" font-family="Times,serif" font-size="14.00" fill="#000000">UserDashboardModule</text>
</g>
<!-- UserDashboardComponent&#45;&gt;UserDashboardModule -->
<g id="edge1" class="edge">
<title>UserDashboardComponent&#45;&gt;UserDashboardModule</title>
<path fill="none" stroke="#000000" d="M1375,-122.2921C1375,-144.2057 1375,-178 1375,-178 1375,-178 738.3341,-178 738.3341,-178"/>
<polygon fill="#000000" stroke="#000000" points="738.3341,-174.5001 728.3341,-178 738.334,-181.5001 738.3341,-174.5001"/>
</g>
<!-- LeaderboardRankingComponent -->
<g id="node2" class="node">
<title>LeaderboardRankingComponent</title>
<polygon fill="#ffffb3" stroke="#000000" points="1272.507,-122 1073.493,-122 1073.493,-86 1272.507,-86 1272.507,-122"/>
<text text-anchor="middle" x="1173" y="-99.8" font-family="Times,serif" font-size="14.00" fill="#000000">LeaderboardRankingComponent</text>
</g>
<!-- LeaderboardRankingComponent&#45;&gt;UserDashboardModule -->
<g id="edge2" class="edge">
<title>LeaderboardRankingComponent&#45;&gt;UserDashboardModule</title>
<path fill="none" stroke="#000000" d="M1173,-122.1061C1173,-141.3391 1173,-169 1173,-169 1173,-169 738.1181,-169 738.1181,-169"/>
<polygon fill="#000000" stroke="#000000" points="738.1181,-165.5001 728.1181,-169 738.1181,-172.5001 738.1181,-165.5001"/>
</g>
<!-- ModelsUploadedComponent -->
<g id="node3" class="node">
<title>ModelsUploadedComponent</title>
<polygon fill="#ffffb3" stroke="#000000" points="1054.7534,-122 877.2466,-122 877.2466,-86 1054.7534,-86 1054.7534,-122"/>
<text text-anchor="middle" x="966" y="-99.8" font-family="Times,serif" font-size="14.00" fill="#000000">ModelsUploadedComponent</text>
</g>
<!-- ModelsUploadedComponent&#45;&gt;UserDashboardModule -->
<g id="edge3" class="edge">
<title>ModelsUploadedComponent&#45;&gt;UserDashboardModule</title>
<path fill="none" stroke="#000000" d="M966,-122.027C966,-138.3976 966,-160 966,-160 966,-160 738.3088,-160 738.3088,-160"/>
<polygon fill="#000000" stroke="#000000" points="738.3089,-156.5001 728.3088,-160 738.3088,-163.5001 738.3089,-156.5001"/>
</g>
<!-- ModelsAwaitingTestingComponent -->
<g id="node4" class="node">
<title>ModelsAwaitingTestingComponent</title>
<polygon fill="#ffffb3" stroke="#000000" points="858.9198,-122 641.0802,-122 641.0802,-86 858.9198,-86 858.9198,-122"/>
<text text-anchor="middle" x="750" y="-99.8" font-family="Times,serif" font-size="14.00" fill="#000000">ModelsAwaitingTestingComponent</text>
</g>
<!-- ModelsAwaitingTestingComponent&#45;&gt;UserDashboardModule -->
<g id="edge4" class="edge">
<title>ModelsAwaitingTestingComponent&#45;&gt;UserDashboardModule</title>
<path fill="none" stroke="#000000" d="M684.7995,-122.1061C684.7995,-122.1061 684.7995,-140.991 684.7995,-140.991"/>
<polygon fill="#000000" stroke="#000000" points="681.2995,-140.9909 684.7995,-150.991 688.2995,-140.991 681.2995,-140.9909"/>
</g>
<!-- UpdatesComponent -->
<g id="node5" class="node">
<title>UpdatesComponent</title>
<polygon fill="#ffffb3" stroke="#000000" points="623.7036,-122 496.2964,-122 496.2964,-86 623.7036,-86 623.7036,-122"/>
<text text-anchor="middle" x="560" y="-99.8" font-family="Times,serif" font-size="14.00" fill="#000000">UpdatesComponent</text>
</g>
<!-- UpdatesComponent&#45;&gt;UserDashboardModule -->
<g id="edge5" class="edge">
<title>UpdatesComponent&#45;&gt;UserDashboardModule</title>
<path fill="none" stroke="#000000" d="M602.6466,-122.1061C602.6466,-122.1061 602.6466,-140.991 602.6466,-140.991"/>
<polygon fill="#000000" stroke="#000000" points="599.1466,-140.9909 602.6466,-150.991 606.1466,-140.991 599.1466,-140.9909"/>
</g>
<!-- UploadModelComponent -->
<g id="node6" class="node">
<title>UploadModelComponent</title>
<polygon fill="#ffffb3" stroke="#000000" points="478.594,-122 319.406,-122 319.406,-86 478.594,-86 478.594,-122"/>
<text text-anchor="middle" x="399" y="-99.8" font-family="Times,serif" font-size="14.00" fill="#000000">UploadModelComponent</text>
</g>
<!-- UploadModelComponent&#45;&gt;UserDashboardModule -->
<g id="edge6" class="edge">
<title>UploadModelComponent&#45;&gt;UserDashboardModule</title>
<path fill="none" stroke="#000000" d="M399,-122.027C399,-138.3976 399,-160 399,-160 399,-160 571.6407,-160 571.6407,-160"/>
<polygon fill="#000000" stroke="#000000" points="571.6407,-163.5001 581.6407,-160 571.6406,-156.5001 571.6407,-163.5001"/>
</g>
<!-- FsIconComponent -->
<g id="node7" class="node">
<title>FsIconComponent</title>
<polygon fill="#ffffb3" stroke="#000000" points="301.9356,-122 182.0644,-122 182.0644,-86 301.9356,-86 301.9356,-122"/>
<text text-anchor="middle" x="242" y="-99.8" font-family="Times,serif" font-size="14.00" fill="#000000">FsIconComponent</text>
</g>
<!-- FsIconComponent&#45;&gt;UserDashboardModule -->
<g id="edge7" class="edge">
<title>FsIconComponent&#45;&gt;UserDashboardModule</title>
<path fill="none" stroke="#000000" d="M242,-122.1061C242,-141.3391 242,-169 242,-169 242,-169 571.6398,-169 571.6398,-169"/>
<polygon fill="#000000" stroke="#000000" points="571.6398,-172.5001 581.6398,-169 571.6397,-165.5001 571.6398,-172.5001"/>
</g>
<!-- ModelListComponent -->
<g id="node8" class="node">
<title>ModelListComponent</title>
<polygon fill="#ffffb3" stroke="#000000" points="163.661,-122 24.339,-122 24.339,-86 163.661,-86 163.661,-122"/>
<text text-anchor="middle" x="94" y="-99.8" font-family="Times,serif" font-size="14.00" fill="#000000">ModelListComponent</text>
</g>
<!-- ModelListComponent&#45;&gt;UserDashboardModule -->
<g id="edge8" class="edge">
<title>ModelListComponent&#45;&gt;UserDashboardModule</title>
<path fill="none" stroke="#000000" d="M94,-122.2921C94,-144.2057 94,-178 94,-178 94,-178 571.659,-178 571.659,-178"/>
<polygon fill="#000000" stroke="#000000" points="571.6591,-181.5001 581.659,-178 571.659,-174.5001 571.6591,-181.5001"/>
</g>
</g>
</svg>
