<?xml version="1.0" encoding="UTF-8" standalone="no"?>
<!DOCTYPE svg PUBLIC "-//W3C//DTD SVG 1.1//EN"
 "http://www.w3.org/Graphics/SVG/1.1/DTD/svg11.dtd">
<!-- Generated by graphviz version 2.40.1 (20161225.0304)
 -->
<!-- Title: dependencies Pages: 1 -->
<svg width="504pt" height="284pt"
 viewBox="0.00 0.00 504.00 284.00" xmlns="http://www.w3.org/2000/svg" xmlns:xlink="http://www.w3.org/1999/xlink">
<g id="graph0" class="graph" transform="scale(1 1) rotate(0) translate(4 280)">
<title>dependencies</title>
<polygon fill="#ffffff" stroke="transparent" points="-4,4 -4,-280 500,-280 500,4 -4,4"/>
<text text-anchor="start" x="227.0091" y="-42.4" font-family="sans-serif" font-weight="bold" font-size="14.00" fill="#000000">Legend</text>
<polygon fill="#ffffb3" stroke="transparent" points="14,-10 14,-30 34,-30 34,-10 14,-10"/>
<text text-anchor="start" x="37.629" y="-15.4" font-family="sans-serif" font-size="14.00" fill="#000000"> &#160;Declarations</text>
<polygon fill="#8dd3c7" stroke="transparent" points="127,-10 127,-30 147,-30 147,-10 127,-10"/>
<text text-anchor="start" x="150.7251" y="-15.4" font-family="sans-serif" font-size="14.00" fill="#000000"> &#160;Module</text>
<polygon fill="#80b1d3" stroke="transparent" points="213,-10 213,-30 233,-30 233,-10 213,-10"/>
<text text-anchor="start" x="236.7812" y="-15.4" font-family="sans-serif" font-size="14.00" fill="#000000"> &#160;Bootstrap</text>
<polygon fill="#fdb462" stroke="transparent" points="310,-10 310,-30 330,-30 330,-10 310,-10"/>
<text text-anchor="start" x="333.6732" y="-15.4" font-family="sans-serif" font-size="14.00" fill="#000000"> &#160;Providers</text>
<polygon fill="#fb8072" stroke="transparent" points="406,-10 406,-30 426,-30 426,-10 406,-10"/>
<text text-anchor="start" x="429.7258" y="-15.4" font-family="sans-serif" font-size="14.00" fill="#000000"> &#160;Exports</text>
<g id="clust1" class="cluster">
<title>cluster_ComponentsModule</title>
<polygon fill="none" stroke="#000000" stroke-dasharray="1,5" points="46.5,-70 46.5,-268 449.5,-268 449.5,-70 46.5,-70"/>
</g>
<g id="clust2" class="cluster">
<title>cluster_ComponentsModule_declarations</title>
<polygon fill="none" stroke="#000000" points="303.5,-78 303.5,-130 441.5,-130 441.5,-78 303.5,-78"/>
</g>
<g id="clust4" class="cluster">
<title>cluster_ComponentsModule_imports</title>
<polygon fill="none" stroke="#000000" points="54.5,-78 54.5,-130 295.5,-130 295.5,-78 54.5,-78"/>
</g>
<g id="clust5" class="cluster">
<title>cluster_ComponentsModule_exports</title>
<polygon fill="none" stroke="#000000" points="169.5,-208 169.5,-260 309.5,-260 309.5,-208 169.5,-208"/>
</g>
<!-- ...COMPONENTS -->
<g id="node1" class="node">
<title>...COMPONENTS</title>
<polygon fill="#ffffb3" stroke="#000000" points="433.3786,-122 311.6214,-122 311.6214,-86 433.3786,-86 433.3786,-122"/>
<text text-anchor="middle" x="372.5" y="-99.8" font-family="Times,serif" font-size="14.00" fill="#000000">...COMPONENTS</text>
</g>
<!-- ComponentsModule -->
<g id="node2" class="node">
<title>ComponentsModule</title>
<polygon fill="#8dd3c7" stroke="#000000" points="304.8272,-187 301.8272,-191 280.8272,-191 277.8272,-187 174.1728,-187 174.1728,-151 304.8272,-151 304.8272,-187"/>
<text text-anchor="middle" x="239.5" y="-164.8" font-family="Times,serif" font-size="14.00" fill="#000000">ComponentsModule</text>
</g>
<!-- ...COMPONENTS&#45;&gt;ComponentsModule -->
<g id="edge1" class="edge">
<title>...COMPONENTS&#45;&gt;ComponentsModule</title>
<path fill="none" stroke="#000000" d="M311.7825,-104C302.4872,-104 295.9138,-104 295.9138,-104 295.9138,-104 295.9138,-140.8939 295.9138,-140.8939"/>
<polygon fill="#000000" stroke="#000000" points="292.4138,-140.8938 295.9138,-150.8939 299.4138,-140.8939 292.4138,-140.8938"/>
</g>
<!-- ...COMPONENTS  -->
<g id="node5" class="node">
<title>...COMPONENTS </title>
<polygon fill="#fb8072" stroke="#000000" points="301.8781,-252 177.1219,-252 177.1219,-216 301.8781,-216 301.8781,-252"/>
<text text-anchor="middle" x="239.5" y="-229.8" font-family="Times,serif" font-size="14.00" fill="#000000">...COMPONENTS </text>
</g>
<!-- ComponentsModule&#45;&gt;...COMPONENTS  -->
<g id="edge4" class="edge">
<title>ComponentsModule&#45;&gt;...COMPONENTS </title>
<path fill="none" stroke="#000000" stroke-dasharray="5,2" d="M239.5,-187.1061C239.5,-187.1061 239.5,-205.991 239.5,-205.991"/>
<polygon fill="#000000" stroke="#000000" points="236.0001,-205.9909 239.5,-215.991 243.0001,-205.991 236.0001,-205.9909"/>
</g>
<!-- FormsModule -->
<g id="node3" class="node">
<title>FormsModule</title>
<polygon fill="#8dd3c7" stroke="#000000" points="287.3288,-122 284.3288,-126 263.3288,-126 260.3288,-122 191.6712,-122 191.6712,-86 287.3288,-86 287.3288,-122"/>
<text text-anchor="middle" x="239.5" y="-99.8" font-family="Times,serif" font-size="14.00" fill="#000000">FormsModule</text>
</g>
<!-- FormsModule&#45;&gt;ComponentsModule -->
<g id="edge2" class="edge">
<title>FormsModule&#45;&gt;ComponentsModule</title>
<path fill="none" stroke="#000000" d="M239.5,-122.1061C239.5,-122.1061 239.5,-140.991 239.5,-140.991"/>
<polygon fill="#000000" stroke="#000000" points="236.0001,-140.9909 239.5,-150.991 243.0001,-140.991 236.0001,-140.9909"/>
</g>
<!-- CommonModule -->
<g id="node4" class="node">
<title>CommonModule</title>
<polygon fill="#8dd3c7" stroke="#000000" points="174.1681,-122 171.1681,-126 150.1681,-126 147.1681,-122 62.8319,-122 62.8319,-86 174.1681,-86 174.1681,-122"/>
<text text-anchor="middle" x="118.5" y="-99.8" font-family="Times,serif" font-size="14.00" fill="#000000">CommonModule</text>
</g>
<!-- CommonModule&#45;&gt;ComponentsModule -->
<g id="edge3" class="edge">
<title>CommonModule&#45;&gt;ComponentsModule</title>
<path fill="none" stroke="#000000" d="M174.3759,-104C179.6557,-104 183.0863,-104 183.0863,-104 183.0863,-104 183.0863,-140.8939 183.0863,-140.8939"/>
<polygon fill="#000000" stroke="#000000" points="179.5863,-140.8938 183.0863,-150.8939 186.5863,-140.8939 179.5863,-140.8938"/>
</g>
</g>
</svg>
